<?xml version="1.0" standalone="no"?>
<!DOCTYPE svg PUBLIC "-//W3C//DTD SVG 20010904//EN"
 "http://www.w3.org/TR/2001/REC-SVG-20010904/DTD/svg10.dtd">
<svg version="1.0" xmlns="http://www.w3.org/2000/svg"
 width="1208.000000pt" height="1208.000000pt" viewBox="0 0 1208.000000 1208.000000"
 preserveAspectRatio="xMidYMid meet">
<metadata>
Created by potrace 1.11, written by Peter Selinger 2001-2013
</metadata>
<g transform="translate(0.000000,1208.000000) scale(0.100000,-0.100000)"
fill="#000000" stroke="none">
<path d="M4870 12046 c-221 -78 -345 -147 -1255 -689 -1116 -666 -1965 -1198
-1965 -1232 0 -17 139 -97 605 -350 580 -314 691 -363 883 -385 120 -13 268 5
392 49 110 38 181 77 624 335 1353 788 1965 1101 2233 1142 125 19 571 -177
1918 -841 540 -266 875 -426 999 -477 89 -36 109 -40 211 -45 136 -7 217 6
298 50 79 41 107 84 107 159 0 80 -23 132 -74 168 -44 30 -309 170 -581 307
-333 168 -1514 737 -1900 916 -77 36 -300 140 -495 232 -930 438 -1327 618
-1469 666 -81 28 -93 29 -260 29 -174 0 -177 -1 -271 -34z"/>
<path d="M6295 10283 c-73 -22 -153 -81 -197 -144 -132 -194 -62 -451 150
-551 246 -117 532 64 532 337 0 250 -246 431 -485 358z"/>
<path d="M7674 9977 c-76 -25 -162 -79 -281 -174 -175 -142 -285 -222 -407
-297 -533 -330 -890 -265 -1588 291 -170 136 -273 176 -393 154 -162 -30 -204
-110 -127 -240 24 -42 102 -132 222 -256 311 -321 404 -426 388 -440 -266
-236 -444 -354 -648 -427 -251 -89 -738 -54 -1305 95 -102 27 -138 32 -240 32
-114 0 -123 -2 -179 -30 -83 -42 -119 -98 -114 -177 3 -45 12 -68 41 -112 69
-104 123 -133 462 -253 269 -95 446 -193 520 -290 53 -70 77 -158 119 -453 17
-113 67 -621 91 -915 45 -540 98 -872 149 -932 32 -37 172 -59 287 -45 121 15
153 30 182 89 47 92 109 367 197 863 17 96 40 227 51 290 12 63 27 153 34 200
73 470 169 958 211 1071 35 95 170 291 360 527 l43 52 10 -52 c15 -76 38 -224
45 -288 4 -30 17 -143 31 -250 13 -107 38 -328 55 -490 149 -1429 201 -1812
263 -1940 20 -41 27 -46 72 -57 65 -15 260 -16 325 -2 35 8 56 18 67 35 55 85
114 482 232 1579 17 154 47 426 66 605 54 487 110 880 125 880 23 0 339 -426
398 -538 49 -92 100 -322 192 -862 191 -1131 259 -1468 321 -1608 34 -75 57
-88 188 -104 69 -8 104 -7 174 5 48 9 95 21 104 29 23 18 49 84 67 169 21 95
61 427 81 661 8 101 22 248 30 328 8 80 19 204 25 275 27 316 76 650 115 781
45 151 218 262 638 410 234 83 279 105 350 176 148 148 99 327 -102 369 -77
16 -215 6 -331 -25 -172 -45 -367 -86 -537 -112 -206 -31 -513 -43 -629 -25
-225 37 -471 175 -749 421 -38 34 -72 66 -74 71 -3 11 15 30 334 365 240 250
258 277 263 394 3 84 -13 129 -60 163 -33 25 -110 31 -164 14z"/>
<path d="M4489 9525 c-109 -35 -215 -140 -245 -242 -23 -79 -16 -212 15 -275
36 -75 104 -144 179 -180 62 -30 75 -33 162 -33 86 0 101 3 162 33 76 37 150
111 180 182 64 148 25 328 -94 436 -90 81 -245 115 -359 79z"/>
<path d="M8103 9526 c-100 -33 -187 -108 -235 -204 -20 -41 -23 -62 -23 -157
0 -101 2 -114 28 -163 42 -80 101 -138 176 -174 60 -30 75 -33 161 -33 82 0
103 4 151 26 156 74 250 245 219 402 -16 86 -39 134 -94 194 -69 77 -154 116
-259 120 -51 2 -98 -2 -124 -11z"/>
<path d="M2576 8048 c-8 -31 -6 -832 3 -1083 8 -222 18 -265 84 -334 33 -34
340 -293 577 -487 311 -253 587 -454 625 -454 19 0 -27 742 -71 1125 -57 510
-97 637 -246 782 -107 104 -231 175 -538 310 -129 57 -326 135 -370 148 -14 3
-32 9 -41 11 -11 3 -19 -3 -23 -18z"/>
<path d="M4481 5122 c-69 -27 -136 -93 -175 -176 -43 -90 -56 -153 -56 -269 0
-198 73 -352 198 -420 176 -95 362 20 427 263 20 74 19 246 -1 323 -58 223
-226 342 -393 279z m133 -116 c42 -18 80 -92 97 -190 15 -88 6 -273 -16 -344
-19 -63 -68 -120 -110 -128 -39 -7 -91 27 -117 77 -72 140 -58 468 24 557 40
42 71 49 122 28z"/>
<path d="M2004 5028 c3 -50 6 -248 6 -440 l0 -348 74 0 75 0 -5 298 -5 297 23
-45 c13 -25 78 -159 145 -297 l122 -253 55 0 c38 0 56 4 56 13 -1 6 1 204 2
440 l3 427 -74 0 -74 0 6 -252 c4 -138 5 -249 3 -247 -3 2 -43 88 -90 191 -47
103 -99 214 -116 248 l-30 60 -92 0 -91 0 7 -92z"/>
<path d="M5395 4680 l0 -440 78 0 77 0 0 440 0 440 -77 0 -78 0 0 -440z"/>
<path d="M8185 5103 c24 -63 32 -30 -131 -545 -52 -163 -94 -302 -94 -308 0
-7 26 -10 77 -8 l77 3 13 64 c7 35 18 81 23 102 l11 39 114 0 114 0 26 -87
c15 -49 29 -96 31 -105 5 -16 18 -18 96 -18 68 0 89 3 86 13 -2 6 -65 204
-138 440 l-134 427 -89 0 c-81 0 -89 -2 -82 -17z m139 -410 l33 -118 -75 -3
c-41 -2 -77 -1 -79 2 -3 3 11 58 31 122 20 64 36 124 36 133 1 32 19 -14 54
-136z"/>
<path d="M2858 4868 c-163 -44 -249 -345 -146 -515 53 -88 156 -142 241 -129
68 11 177 79 177 110 0 6 -12 24 -26 39 l-25 27 -31 -22 c-19 -13 -51 -23 -83
-26 -43 -4 -55 -1 -78 19 -15 13 -33 40 -42 60 l-14 37 139 48 c77 26 145 51
152 55 17 11 -6 131 -38 196 -42 87 -131 127 -226 101z m101 -124 c23 -30 28
-86 9 -101 -7 -6 -38 -18 -68 -28 -30 -10 -61 -20 -69 -23 -32 -12 8 147 43
170 24 17 65 8 85 -18z"/>
<path d="M5235 4865 c-16 -9 -44 -30 -61 -46 l-31 -30 -7 35 -7 36 -80 0 c-72
0 -80 -2 -75 -17 19 -62 26 -154 26 -365 l0 -239 75 3 76 3 2 190 c2 172 4
194 24 238 25 53 65 77 128 77 l36 0 -3 63 -3 62 -35 3 c-19 1 -48 -5 -65 -13z"/>
<path d="M5845 4871 c-46 -11 -68 -26 -109 -72 -82 -90 -117 -246 -81 -365 33
-113 106 -185 208 -206 65 -13 117 0 183 45 69 48 74 60 40 96 l-29 30 -42
-24 c-56 -33 -114 -33 -153 0 -29 24 -60 81 -49 91 3 3 67 27 143 53 l139 48
3 47 c8 119 -65 235 -159 255 -55 12 -51 12 -94 2z m99 -142 c30 -55 17 -83
-47 -107 -102 -38 -97 -38 -97 8 0 47 23 109 48 128 31 24 75 11 96 -29z"/>
<path d="M6210 4805 c0 -41 4 -75 9 -75 5 0 25 7 44 15 20 8 59 15 87 15 41 0
56 -5 75 -25 40 -39 33 -61 -27 -81 -134 -43 -215 -107 -237 -187 -48 -170
110 -300 262 -215 46 26 48 26 60 7 10 -16 23 -19 80 -19 l69 0 -6 38 c-4 20
-10 127 -14 237 -7 179 -11 205 -31 243 -42 82 -139 122 -291 122 l-80 0 0
-75z m250 -336 c0 -104 -8 -118 -71 -119 -51 0 -81 26 -82 73 -1 47 26 85 83
115 69 35 70 34 70 -69z"/>
<path d="M6957 4866 c-22 -8 -49 -24 -62 -36 l-23 -21 -6 25 c-6 25 -10 26
-78 26 l-71 0 6 -67 c4 -38 7 -177 7 -310 l0 -243 78 0 77 0 -4 221 -3 221 28
29 c36 38 77 39 101 2 16 -24 18 -54 18 -250 l0 -223 79 0 79 0 -5 248 c-4
239 -5 251 -29 297 -13 27 -35 57 -49 66 -36 25 -98 31 -143 15z"/>
<path d="M7479 4870 c-179 -32 -268 -209 -156 -311 17 -16 67 -47 109 -70 84
-43 111 -71 101 -107 -6 -24 -50 -52 -80 -52 -29 1 -96 35 -135 69 -20 17 -41
31 -47 31 -7 0 -11 -28 -11 -80 l0 -81 45 -19 c106 -46 220 -31 296 37 53 48
71 84 71 147 1 92 -28 127 -160 196 -79 42 -87 48 -90 78 -3 27 1 34 25 43 27
10 80 8 152 -7 l33 -7 -7 64 c-4 35 -9 66 -11 68 -7 8 -92 9 -135 1z"/>
<path d="M8930 4864 c-14 -9 -39 -30 -57 -47 l-32 -30 -6 37 -7 36 -80 0 c-70
0 -79 -2 -74 -16 18 -48 27 -182 24 -379 l-3 -220 79 0 78 0 1 190 c2 173 4
194 24 238 25 53 65 77 128 77 l36 0 -3 63 -3 62 -40 3 c-25 2 -49 -4 -65 -14z"/>
<path d="M9252 4870 c-123 -30 -209 -183 -200 -359 5 -99 35 -168 99 -226 34
-31 118 -65 159 -65 46 0 122 34 166 73 l47 43 -29 33 -30 33 -38 -26 c-56
-37 -123 -36 -164 2 -36 34 -51 80 -31 93 8 5 37 16 64 25 28 9 87 30 133 46
l82 30 0 38 c0 55 -36 164 -66 200 -45 53 -122 77 -192 60z m88 -120 c23 -23
28 -91 8 -107 -7 -6 -38 -18 -68 -28 -30 -10 -61 -20 -68 -23 -27 -10 3 125
35 160 21 24 68 23 93 -2z"/>
<path d="M9618 4874 c-5 -4 -8 -36 -8 -71 0 -73 8 -81 63 -58 20 8 59 15 86
15 43 0 53 -4 75 -31 14 -17 26 -36 26 -42 0 -7 -36 -25 -80 -40 -144 -51
-220 -133 -220 -237 0 -154 143 -233 277 -154 42 24 42 24 53 4 9 -17 21 -20
81 -20 l71 0 -6 26 c-16 61 -25 179 -26 307 0 151 -8 183 -56 231 -50 50 -107
69 -224 74 -58 2 -108 1 -112 -4z m252 -403 c0 -82 -2 -91 -22 -105 -36 -26
-93 -21 -117 10 -43 55 -17 123 62 160 29 13 58 24 65 24 9 0 12 -25 12 -89z"/>
<path d="M3160 4839 c0 -39 79 -340 142 -536 l20 -63 53 0 c42 0 55 4 59 18
45 156 69 243 74 276 7 38 8 37 35 -61 15 -55 37 -130 48 -166 l20 -67 58 0
58 0 41 133 c48 153 97 350 107 431 l7 56 -66 0 c-74 0 -70 5 -80 -100 -3 -30
-17 -104 -30 -165 l-23 -110 -18 60 c-10 33 -30 116 -45 185 l-25 125 -62 3
c-58 3 -63 1 -67 -20 -3 -13 -12 -59 -21 -103 -22 -111 -49 -223 -56 -229 -7
-8 -46 161 -60 261 -6 43 -13 81 -15 85 -3 5 -39 8 -80 8 -68 0 -74 -2 -74
-21z"/>
<path d="M6373 3689 c-122 -22 -202 -120 -203 -247 0 -75 15 -116 67 -172 128
-143 365 -94 427 88 20 58 20 106 0 164 -41 120 -162 190 -291 167z"/>
<path d="M1828 3553 c4 -71 7 -463 7 -873 0 -410 -3 -802 -7 -873 l-8 -127
268 2 267 3 -1 40 c-1 22 -5 216 -9 432 l-8 391 107 4 c59 1 153 1 208 0 l101
-4 -5 -434 -5 -434 266 2 266 3 -1 25 c-33 572 -33 1403 -1 1925 l2 40 -266 3
-266 2 5 -395 5 -395 -208 0 -208 0 8 353 c4 193 9 370 9 392 l1 40 -267 3
-268 2 8 -127z"/>
<path d="M4766 3672 c-2 -4 0 -73 7 -152 12 -168 16 -1384 4 -1627 l-8 -162
68 -39 67 -40 36 30 c19 16 54 46 78 65 l42 36 38 -25 c74 -50 108 -66 182
-88 94 -28 231 -24 325 9 184 66 319 227 391 468 22 73 27 114 31 240 6 164
-3 238 -42 369 -76 251 -293 400 -531 365 -41 -6 -102 -22 -136 -36 -34 -14
-63 -25 -65 -25 -2 0 -3 140 -3 310 l0 310 -239 0 c-132 0 -242 -4 -245 -8z
m656 -880 c43 -28 69 -69 96 -150 25 -72 26 -89 27 -272 0 -162 -3 -205 -18
-255 -39 -124 -86 -175 -166 -175 -64 0 -97 37 -106 121 -9 87 -2 680 9 702
21 44 110 61 158 29z"/>
<path d="M6950 3305 l0 -215 -80 0 -80 0 0 -135 0 -135 80 0 80 0 0 -347 c1
-479 15 -595 85 -687 36 -47 119 -102 184 -120 90 -26 244 -20 373 14 l38 11
0 128 0 129 -65 4 c-76 5 -114 27 -132 79 -8 24 -12 146 -12 412 l-1 377 105
0 105 0 0 135 0 135 -106 0 -106 0 3 213 4 212 -237 3 -238 2 0 -215z"/>
<path d="M9220 3305 l0 -215 -80 0 -80 0 0 -135 0 -135 80 0 80 0 0 -352 c1
-533 14 -615 116 -715 72 -70 140 -96 267 -101 93 -4 177 5 260 28 l37 11 0
128 0 129 -65 4 c-76 5 -114 27 -132 79 -8 24 -12 146 -12 412 l-1 377 100 0
100 0 0 135 0 135 -101 0 -101 0 3 213 3 212 -237 3 -237 2 0 -215z"/>
<path d="M3715 3123 c-22 -1 -77 -5 -122 -9 l-83 -6 0 -199 c0 -109 3 -199 8
-199 4 0 21 9 37 21 75 51 192 95 300 113 49 8 124 -13 160 -45 33 -29 61 -87
53 -110 -2 -7 -78 -37 -168 -68 -266 -91 -404 -190 -480 -345 -58 -118 -53
-288 12 -403 32 -57 112 -134 170 -164 135 -69 317 -63 467 17 36 18 65 33 66
31 1 -1 12 -19 24 -39 l23 -38 224 0 c246 0 234 -4 209 66 -37 106 -47 216
-55 574 -5 254 -12 371 -22 410 -33 127 -121 241 -234 302 -129 70 -376 108
-589 91z m395 -923 l0 -200 -37 -19 c-64 -32 -97 -35 -148 -12 -37 17 -50 29
-67 67 -37 84 -13 189 61 261 31 31 160 103 183 103 4 0 8 -90 8 -200z"/>
<path d="M8095 3123 c-22 -1 -77 -5 -122 -9 l-83 -6 0 -199 c0 -109 3 -199 8
-199 4 0 18 7 30 15 12 9 57 33 99 54 188 92 344 85 403 -20 39 -71 34 -75
-145 -138 -253 -88 -366 -161 -450 -287 -169 -254 -43 -590 245 -658 130 -31
273 -12 376 50 31 19 58 33 59 32 1 -2 12 -20 24 -40 l23 -38 224 0 c243 0
236 -2 214 54 -5 14 -19 72 -31 128 -18 89 -22 151 -28 468 -7 343 -9 369 -30
430 -29 83 -53 124 -110 183 -128 134 -404 205 -706 180z m395 -922 l0 -199
-24 -15 c-13 -9 -45 -21 -70 -28 -40 -10 -50 -9 -90 11 -110 53 -114 213 -8
324 31 32 159 106 184 106 4 0 8 -89 8 -199z"/>
<path d="M6177 2973 c4 -65 8 -329 8 -588 0 -258 -4 -523 -8 -587 l-8 -118
256 0 257 0 -6 38 c-14 86 -27 731 -22 1040 l6 332 -246 0 -245 0 8 -117z"/>
<path d="M10120 1385 c-191 -61 -221 -318 -50 -422 68 -41 122 -50 192 -29
109 32 168 112 168 230 0 72 -14 112 -59 159 -58 64 -165 90 -251 62z m156
-54 c73 -33 112 -112 100 -201 -19 -137 -179 -207 -284 -123 -57 45 -85 106
-78 172 12 132 141 207 262 152z"/>
<path d="M10108 1304 c-5 -4 -8 -70 -8 -146 l0 -138 25 0 c24 0 25 3 25 60 0
54 2 60 20 60 15 0 32 -18 58 -60 27 -44 43 -60 60 -60 29 0 28 16 -7 69 l-30
44 30 28 c39 37 38 92 -3 122 -27 20 -156 37 -170 21z m145 -65 c20 -32 1 -49
-53 -49 l-50 0 0 36 0 35 46 -3 c30 -2 51 -9 57 -19z"/>
<path d="M2067 1364 c-33 -10 -66 -32 -102 -67 -59 -58 -75 -97 -75 -189 l0
-58 -40 0 -40 0 0 -74 0 -75 38 -3 37 -3 0 -308 -1 -307 139 0 138 0 -6 48
c-3 26 -7 164 -8 307 l-2 260 58 3 57 3 0 74 0 75 -59 0 -60 0 -6 44 c-13 82
30 126 111 113 l34 -6 0 84 c0 66 -3 84 -16 89 -29 11 -148 5 -197 -10z"/>
<path d="M8420 1363 c-133 -69 -89 -267 60 -267 80 0 140 60 140 141 0 102
-111 172 -200 126z"/>
<path d="M4055 825 l0 -546 144 3 143 3 -1 233 -2 232 106 0 106 0 -2 -232 -1
-233 143 -3 144 -3 0 546 0 546 -144 -3 -143 -3 1 -212 2 -213 -106 0 -106 0
2 213 1 212 -143 3 -144 3 0 -546z"/>
<path d="M8779 1273 c0 -5 0 -56 1 -115 l2 -108 -46 0 -46 0 0 -75 0 -75 45 0
45 0 0 -215 c0 -262 8 -305 64 -361 61 -62 131 -76 249 -53 l57 12 0 73 0 74
-33 0 c-20 0 -42 8 -55 20 -21 20 -22 27 -22 235 l0 215 55 0 55 0 0 75 0 75
-55 0 -55 0 0 115 0 115 -130 0 c-71 0 -130 -3 -131 -7z"/>
<path d="M2513 1052 c-128 -46 -205 -135 -238 -274 -49 -209 44 -423 214 -490
77 -30 185 -30 262 0 157 62 249 252 220 451 -21 142 -94 246 -208 298 -76 35
-178 41 -250 15z m152 -182 c37 -71 37 -326 0 -404 -14 -29 -23 -36 -45 -36
-24 0 -32 8 -50 45 -19 40 -22 62 -22 189 0 123 3 151 21 190 17 40 24 46 50
46 24 0 34 -7 46 -30z"/>
<path d="M3434 1056 c-18 -8 -50 -30 -72 -50 -22 -20 -42 -36 -45 -36 -3 0 -8
18 -12 40 l-7 40 -130 0 -130 0 6 -22 c24 -83 31 -609 10 -717 l-6 -31 145 0
145 0 -2 213 c-1 210 -1 213 26 269 32 69 62 90 128 90 l50 0 0 109 0 109 -37
0 c-21 -1 -52 -7 -69 -14z"/>
<path d="M6098 1055 c-20 -7 -54 -25 -75 -40 l-38 -25 -9 30 -9 30 -116 0
-116 0 0 -385 0 -385 135 0 135 0 -3 274 c-3 196 -1 279 7 295 14 26 56 44 82
36 36 -12 42 -65 36 -319 -4 -133 -8 -250 -9 -261 -3 -19 4 -20 137 -23 l140
-3 -3 284 -4 284 28 22 c34 26 49 26 75 0 20 -20 21 -28 17 -305 l-3 -284 135
0 135 0 -3 288 c-3 312 -10 368 -48 424 -66 94 -217 102 -334 17 l-42 -31 -32
31 c-60 58 -140 75 -218 46z"/>
<path d="M6953 1063 l-33 -4 0 -110 c0 -60 2 -109 5 -109 3 0 34 14 68 32 50
26 75 32 125 32 56 1 65 -2 82 -24 33 -43 26 -54 -52 -79 -97 -31 -160 -64
-210 -109 -141 -127 -106 -351 65 -408 63 -21 157 -15 214 15 42 21 42 21 53
1 10 -18 21 -20 135 -20 73 0 125 4 125 10 0 5 -7 35 -16 67 -10 39 -18 132
-23 283 -8 255 -14 277 -93 344 -64 55 -148 78 -293 81 -66 2 -135 1 -152 -2z
m287 -502 c0 -92 -2 -101 -22 -115 -32 -22 -55 -20 -83 9 -19 18 -25 35 -25
68 0 50 24 87 74 118 53 33 56 29 56 -80z"/>
<path d="M7955 1058 c-16 -6 -49 -23 -72 -39 l-42 -27 -10 29 -10 29 -113 0
-113 0 0 -385 0 -385 136 0 135 0 -4 274 -5 274 26 26 c32 32 60 33 88 5 21
-21 21 -27 17 -300 l-3 -279 136 0 136 0 -4 293 c-4 309 -11 358 -56 418 -46
64 -162 95 -242 67z"/>
<path d="M4947 913 c1 -76 4 -214 6 -308 3 -132 8 -179 21 -210 42 -98 139
-149 244 -127 31 7 76 25 100 42 l43 30 10 -30 11 -30 111 0 112 0 0 385 0
385 -135 0 -136 0 4 -272 c4 -255 3 -274 -14 -295 -31 -35 -60 -38 -89 -9
l-25 25 0 276 0 275 -133 0 -133 0 3 -137z"/>
<path d="M8345 665 l0 -385 139 0 139 0 -6 83 c-4 45 -7 218 -7 385 l0 302
-132 0 -133 0 0 -385z"/>
<path d="M9210 1043 c0 -5 9 -46 20 -93 25 -112 63 -237 139 -448 33 -96 61
-189 61 -207 0 -71 -82 -126 -157 -106 -21 6 -41 11 -45 11 -5 0 -8 -46 -8
-101 l0 -101 103 4 c115 5 142 15 214 81 79 73 142 212 236 522 65 212 117
403 117 428 0 16 -10 17 -112 15 l-113 -3 -12 -80 c-7 -44 -25 -136 -40 -204
l-27 -124 -18 59 c-15 48 -47 177 -83 332 -5 21 -9 22 -140 22 -74 0 -135 -3
-135 -7z"/>
</g>
</svg>
