<?xml version="1.0" standalone="no"?>
<!DOCTYPE svg PUBLIC "-//W3C//DTD SVG 20010904//EN"
 "http://www.w3.org/TR/2001/REC-SVG-20010904/DTD/svg10.dtd">
<svg version="1.0" xmlns="http://www.w3.org/2000/svg"
 width="1208.000000pt" height="1208.000000pt" viewBox="0 0 1208.000000 1208.000000"
 preserveAspectRatio="xMidYMid meet">
<metadata>
Created by potrace 1.11, written by Peter Selinger 2001-2013
</metadata>
<g transform="translate(0.000000,1208.000000) scale(0.100000,-0.100000)"
fill="#000000" stroke="none">
<path d="M1650 6040 l0 -6040 3818 1 c2099 1 3805 4 3790 6 l-28 4 0 88 0 88
48 -10 c41 -9 55 -7 88 9 42 21 84 74 84 108 0 12 -30 105 -66 206 -71 200
-154 476 -154 516 l0 24 119 0 118 0 28 -118 c35 -150 76 -295 85 -305 12 -13
37 80 65 238 14 77 28 150 31 162 4 22 9 23 105 23 91 0 100 -2 95 -17 -3 -10
-19 -71 -36 -135 -44 -170 -75 -276 -126 -428 -106 -314 -191 -421 -357 -449
-33 -5 152 -9 511 -10 l562 -1 -1 578 c0 489 -2 570 -13 529 -54 -201 -335
-229 -422 -42 -31 65 -31 126 0 190 41 88 102 125 206 125 118 0 194 -67 223
-195 3 -11 5 2436 6 5438 l1 5457 -2587 -1 c-1598 -1 -2573 -5 -2548 -10 145
-33 467 -176 1460 -644 160 -75 427 -201 595 -280 876 -410 2196 -1056 2415
-1182 86 -50 103 -64 123 -103 26 -52 29 -127 7 -170 -20 -38 -67 -72 -140
-101 -53 -21 -77 -23 -195 -23 -116 0 -144 3 -200 23 -90 33 -469 212 -955
451 -1370 676 -1850 890 -1991 890 -216 0 -889 -341 -2309 -1170 -220 -128
-439 -251 -486 -272 -248 -110 -503 -115 -753 -14 -119 48 -842 434 -1103 588
l-102 61 44 33 c93 72 596 389 1195 756 85 52 400 241 700 420 909 543 1069
631 1295 709 l110 38 -1677 1 -1678 0 0 -6040z m4870 4228 c64 -18 142 -79
186 -145 136 -202 31 -481 -207 -547 -69 -20 -109 -20 -184 -1 -124 33 -228
138 -261 266 -21 81 -13 153 26 236 77 167 256 244 440 191z m1322 -325 c38
-36 52 -84 45 -156 -9 -98 -42 -146 -257 -369 -191 -199 -297 -311 -334 -355
-18 -22 -18 -22 39 -75 233 -213 456 -355 665 -423 79 -26 100 -29 284 -33
294 -6 558 29 943 125 274 69 400 66 506 -9 34 -24 66 -89 67 -134 0 -73 -96
-196 -193 -245 -21 -11 -134 -54 -250 -94 -117 -41 -268 -103 -337 -137 -105
-53 -137 -75 -202 -138 -69 -68 -79 -82 -98 -145 -46 -151 -103 -603 -155
-1240 -44 -527 -101 -906 -145 -953 -25 -27 -101 -42 -210 -42 -109 0 -184 15
-214 43 -32 30 -67 132 -109 322 -60 267 -84 401 -258 1420 -83 488 -128 683
-181 784 -77 146 -400 573 -419 554 -9 -10 -52 -272 -73 -443 -9 -69 -25 -200
-36 -292 -12 -92 -27 -231 -35 -310 -7 -79 -25 -249 -39 -378 -15 -129 -40
-359 -56 -510 -80 -724 -140 -1090 -187 -1149 -24 -30 -129 -44 -258 -37 -137
9 -156 15 -177 57 -56 112 -114 513 -218 1494 -75 713 -93 866 -126 1125 -19
151 -42 306 -50 343 -8 38 -14 71 -14 74 0 24 -187 -209 -302 -377 -85 -123
-123 -198 -149 -290 -23 -83 -91 -424 -114 -565 -17 -112 -108 -640 -170 -990
-91 -517 -158 -784 -210 -832 -32 -29 -107 -43 -223 -42 -127 1 -180 15 -207
55 -44 65 -84 334 -135 889 -78 863 -86 939 -129 1160 -29 149 -52 203 -115
265 -117 115 -240 176 -597 301 -210 72 -241 88 -311 160 -70 72 -97 140 -79
205 16 58 43 89 109 120 51 25 68 28 162 28 92 0 128 -5 295 -47 203 -51 398
-88 590 -112 157 -20 467 -20 559 0 178 38 379 144 588 311 97 79 188 161 188
172 0 12 -129 153 -344 377 -269 281 -316 342 -316 414 0 98 172 151 331 101
50 -15 89 -39 174 -106 414 -327 640 -456 883 -505 177 -36 316 -20 514 60
157 62 367 197 608 391 213 170 317 225 410 215 29 -4 53 -14 72 -32z m-3154
-427 c104 -28 188 -97 239 -196 25 -49 28 -65 28 -155 0 -89 -3 -106 -28 -157
-106 -215 -393 -270 -570 -108 -30 28 -65 73 -82 107 -27 53 -30 67 -30 158 0
89 3 106 28 156 75 153 254 237 415 195z m3677 -26 c69 -33 140 -102 176 -171
20 -38 24 -59 24 -149 0 -95 -3 -111 -28 -161 -30 -62 -103 -136 -163 -167
-178 -89 -387 -20 -485 160 -32 60 -34 68 -34 163 0 93 2 104 32 160 94 180
299 251 478 165z m-5643 -1479 c488 -186 759 -335 872 -482 94 -120 133 -259
176 -629 40 -336 100 -1173 86 -1187 -18 -18 -296 186 -651 477 -484 396 -554
460 -586 534 -20 48 -22 73 -30 386 -10 413 -11 818 -3 888 5 34 11 52 20 52
8 0 60 -18 116 -39z m1935 -2902 c172 -64 267 -335 204 -581 -27 -104 -61
-167 -119 -220 -142 -127 -342 -72 -429 118 -69 151 -65 382 9 530 27 56 94
123 143 145 45 21 147 25 192 8z m-2457 -59 c48 -96 210 -450 210 -460 0 -5 5
-12 12 -16 8 -5 9 59 4 264 l-7 272 67 0 67 0 -7 -77 c-3 -42 -6 -235 -6 -430
l0 -353 -44 0 c-24 0 -48 6 -53 13 -17 22 -281 581 -285 602 -2 11 -7 20 -11
20 -5 0 -8 -143 -7 -317 l1 -318 -61 0 -60 0 0 363 c0 199 -3 392 -7 430 l-6
67 81 0 82 0 30 -60z m3335 -370 l0 -430 -62 0 -63 0 0 430 0 430 63 0 62 0 0
-430z m2929 53 c65 -208 125 -396 132 -418 22 -65 22 -65 -61 -65 l-74 0 -11
43 c-6 23 -20 70 -31 105 l-21 62 -123 0 -124 0 -10 -37 c-11 -44 -26 -106
-35 -145 -6 -27 -9 -28 -71 -28 -36 0 -65 1 -65 3 0 1 24 76 54 167 30 91 70
219 91 285 20 66 50 163 67 215 33 107 34 112 24 158 l-8 32 74 0 74 0 118
-377z m-5457 109 c55 -30 108 -150 101 -228 l-3 -37 -142 -50 c-92 -32 -143
-55 -143 -64 0 -29 42 -95 73 -113 43 -27 79 -25 140 6 l51 25 18 -23 c18 -23
18 -23 -21 -59 -70 -63 -168 -76 -258 -35 -99 46 -148 150 -141 295 5 108 40
192 104 251 40 36 54 43 109 53 27 4 85 -7 112 -21z m2313 -26 l0 -53 -49 -7
c-105 -14 -131 -79 -131 -333 l0 -173 -66 0 -67 0 7 168 c6 155 -4 357 -20
410 -6 21 -4 22 59 22 l65 0 7 -40 c8 -46 14 -49 41 -19 36 41 97 79 126 79
27 0 28 -1 28 -54z m627 39 c52 -10 100 -66 123 -144 12 -38 20 -84 18 -101
-3 -31 -6 -33 -103 -67 -189 -65 -185 -63 -185 -86 0 -54 75 -127 131 -127 14
0 48 11 74 25 l49 24 23 -21 23 -22 -22 -23 c-38 -41 -116 -73 -177 -73 -145
0 -244 122 -243 300 1 90 20 157 63 220 47 69 127 115 179 105 8 -2 29 -6 47
-10z m525 -17 c34 -16 66 -40 84 -63 l29 -38 7 -201 c4 -111 12 -217 18 -236
15 -51 15 -50 -48 -50 -52 0 -60 3 -72 24 l-13 25 -52 -30 c-112 -63 -224 -21
-256 95 -14 51 1 115 37 163 31 41 108 86 197 115 37 12 67 26 67 31 0 27 -36
77 -65 91 -43 21 -64 20 -130 -3 l-55 -19 0 57 c0 32 3 61 8 65 4 5 48 6 98 4
69 -4 104 -11 146 -30z m578 22 c10 0 32 -12 49 -26 49 -41 59 -97 64 -356 l5
-228 -64 0 -64 0 0 213 c0 182 -3 217 -18 247 -14 30 -23 35 -56 38 -31 3 -44
-2 -68 -25 l-29 -28 2 -220 2 -220 -60 -3 -60 -3 -5 283 c-3 156 -9 291 -13
301 -6 15 0 17 53 17 59 0 61 -1 67 -30 4 -16 9 -30 13 -30 3 0 20 13 37 29
30 30 89 53 113 45 8 -2 22 -4 32 -4z m548 0 c8 0 12 -18 12 -54 l0 -55 -32
10 c-18 5 -56 9 -85 9 -44 0 -55 -4 -72 -26 -12 -15 -21 -33 -21 -40 0 -21 39
-52 115 -90 40 -19 87 -50 105 -69 29 -30 34 -43 38 -95 4 -51 1 -66 -22 -104
-53 -91 -187 -131 -305 -91 l-51 17 0 70 0 70 39 -31 c97 -77 192 -80 222 -8
19 45 -3 75 -91 122 -138 73 -160 98 -160 175 0 67 43 126 120 165 37 19 123
35 155 29 11 -2 26 -4 33 -4z m1422 -45 c0 -55 0 -55 -30 -55 -47 0 -97 -25
-113 -57 -30 -58 -38 -116 -38 -283 l1 -170 -64 0 -64 0 -5 273 c-3 149 -8
285 -12 300 l-8 28 64 -3 c63 -3 63 -3 70 -36 4 -18 10 -36 13 -39 4 -4 25 12
49 34 51 49 74 62 110 63 26 0 27 -2 27 -55z m361 29 c60 -30 107 -124 112
-224 l2 -41 -144 -50 c-80 -27 -147 -51 -149 -53 -2 -3 7 -29 21 -59 18 -40
33 -58 60 -70 48 -23 76 -21 132 8 45 24 49 25 66 9 25 -22 24 -28 -8 -60 -92
-88 -243 -85 -330 7 -77 82 -104 228 -63 348 57 169 181 245 301 185z m504 -8
c38 -19 65 -41 83 -69 26 -39 27 -46 34 -236 3 -108 9 -215 13 -238 l8 -43
-56 0 c-49 0 -59 3 -73 25 l-16 24 -39 -26 c-47 -31 -125 -41 -169 -23 -102
42 -131 188 -54 279 40 48 80 72 173 106 79 28 86 33 83 55 -4 34 -54 78 -97
86 -25 4 -53 0 -91 -14 l-54 -20 0 65 0 66 99 -5 c82 -4 109 -10 156 -32z
m-6580 -8 c2 -13 12 -63 20 -113 23 -135 57 -268 65 -258 11 12 90 353 90 391
0 1 22 2 50 2 43 0 50 -3 55 -22 2 -13 16 -75 30 -138 49 -218 67 -265 80
-207 2 12 14 63 25 112 18 81 39 210 40 243 0 8 18 12 55 12 34 0 55 -4 55
-11 0 -33 -66 -304 -107 -436 l-46 -153 -47 0 -47 0 -31 103 c-18 56 -40 137
-49 180 -10 42 -20 77 -23 77 -3 0 -18 -51 -34 -112 -16 -62 -38 -143 -49
-180 l-20 -68 -43 0 c-39 0 -43 3 -53 33 -61 197 -151 529 -151 562 0 3 29 5
65 5 59 0 65 -2 70 -22z m3198 -1159 c49 -13 115 -73 138 -124 23 -50 25 -152
3 -203 -62 -149 -275 -190 -390 -74 -120 120 -84 323 70 393 46 21 122 24 179
8z m-4171 -399 l-5 -390 219 2 219 3 -2 315 c-1 173 -4 348 -8 388 l-6 72 256
0 256 0 -8 -132 c-11 -175 -10 -1535 0 -1705 l9 -133 -257 0 -258 0 7 53 c3
28 9 223 13 433 l6 381 -24 6 c-36 10 -392 8 -408 -2 -11 -7 -13 -80 -9 -440
l4 -431 -254 0 -254 0 6 52 c35 281 35 1604 0 1871 l-6 47 254 0 255 0 -5
-390z m2908 79 c0 -293 1 -311 18 -303 9 4 55 20 100 36 251 87 494 -26 596
-278 45 -111 61 -214 60 -384 -1 -134 -4 -168 -27 -253 -67 -250 -216 -425
-412 -483 -71 -21 -218 -23 -285 -5 -55 15 -153 64 -198 98 l-33 25 -62 -54
c-103 -89 -88 -85 -157 -43 l-61 37 8 107 c11 144 10 1457 -1 1654 l-9 157
232 0 231 0 0 -311z m2170 -59 l0 -210 100 0 100 0 0 -125 0 -125 -100 0 -100
0 0 -393 c0 -364 1 -395 19 -427 26 -49 69 -71 136 -71 l55 0 0 -119 0 -119
-38 -10 c-75 -21 -198 -33 -267 -27 -170 14 -279 96 -322 241 -15 52 -18 121
-23 490 l-5 430 -77 3 -78 3 0 124 0 125 82 0 81 0 -6 210 -6 210 224 0 225 0
0 -210z m2269 3 l-4 -208 103 -3 102 -3 0 -124 0 -124 -102 -3 -103 -3 0 -385
c0 -365 1 -387 20 -425 27 -53 70 -76 140 -76 l55 0 0 -119 0 -119 -37 -10
c-74 -20 -218 -33 -280 -27 -151 16 -258 92 -303 216 -24 64 -24 73 -30 505
l-5 440 -77 3 -78 3 0 124 0 124 77 3 77 3 -3 208 -3 207 227 0 227 0 -3 -207z
m-5724 -187 c110 -7 267 -45 337 -83 75 -41 150 -114 186 -181 60 -112 64
-142 72 -547 8 -375 12 -419 54 -560 l14 -45 -216 2 -217 3 -22 41 -23 42 -88
-45 c-109 -55 -192 -70 -301 -54 -231 35 -374 212 -358 445 7 97 47 186 121
265 98 103 205 162 426 232 74 23 138 45 143 49 13 11 -22 105 -50 132 -37 36
-93 58 -146 58 -81 0 -227 -48 -316 -104 -22 -14 -43 -26 -46 -26 -3 0 -5 81
-5 180 0 178 0 180 23 185 30 8 254 22 292 18 17 -1 71 -5 120 -7z m4380 0
c107 -6 261 -43 335 -81 72 -37 164 -126 196 -190 53 -109 56 -134 64 -535 8
-380 10 -396 54 -558 l14 -52 -215 2 -215 3 -22 40 c-11 22 -22 41 -22 43 -1
2 -28 -13 -60 -33 -137 -82 -320 -95 -459 -31 -69 31 -154 113 -187 178 -58
115 -59 271 -1 385 79 156 214 248 503 343 l145 48 -3 33 c-10 90 -93 159
-194 159 -88 0 -291 -73 -350 -127 -17 -15 -18 -7 -18 170 l0 185 31 7 c39 9
244 22 284 18 17 -1 71 -5 120 -7z m-1690 -593 c0 -313 3 -625 8 -695 l7 -128
-241 0 -241 0 6 33 c16 89 26 684 16 981 -5 171 -13 326 -16 344 l-6 32 233 0
234 0 0 -567z m-4397 -1149 c20 -6 22 -12 22 -75 l0 -68 -45 1 c-77 1 -115
-53 -100 -142 l7 -40 59 0 59 0 0 -65 0 -64 -57 -3 -58 -3 0 -308 1 -307 -121
0 -120 0 0 307 0 308 -37 3 -38 3 0 65 0 64 40 0 40 0 0 63 c1 72 16 120 53
168 54 71 202 117 295 93z m6306 -25 c56 -44 70 -110 36 -166 -53 -88 -187
-80 -226 14 -21 50 -10 99 31 140 28 28 40 33 83 33 35 0 57 -6 76 -21z
m-4231 -199 l-6 -211 124 3 124 3 -2 208 -2 207 132 0 132 0 0 -530 0 -530
-132 0 -132 0 6 231 c5 192 4 232 -8 240 -18 11 -210 11 -228 0 -12 -8 -13
-48 -8 -240 l5 -231 -131 0 -132 0 0 530 0 530 132 0 131 0 -5 -210z m4706 18
l-4 -113 58 -3 57 -3 0 -64 0 -65 -47 0 c-27 0 -54 -4 -61 -9 -11 -7 -13 -51
-10 -219 3 -207 3 -211 27 -236 17 -18 35 -26 58 -26 l33 0 0 -59 c0 -35 -5
-63 -12 -67 -17 -11 -151 -18 -192 -10 -45 9 -104 59 -124 106 -11 26 -17 94
-21 275 l-6 240 -43 3 -43 3 3 62 3 62 43 3 42 3 0 115 0 114 121 0 121 0 -3
-112z m-6281 -130 c74 -28 153 -108 182 -185 46 -121 47 -217 3 -340 -49 -140
-164 -223 -312 -223 -206 0 -342 153 -343 385 0 209 112 356 292 384 59 9 112
3 178 -21z m766 26 c13 -5 16 -23 16 -94 l0 -87 -49 -5 c-130 -13 -168 -108
-158 -406 l6 -172 -127 0 -127 0 0 317 c0 175 -4 344 -8 376 l-8 57 111 0
c109 0 111 0 120 -26 6 -14 10 -36 10 -50 0 -33 10 -30 55 17 39 39 78 63 120
72 11 3 21 5 22 6 1 0 8 -2 17 -5z m2747 -19 c14 -8 39 -28 57 -46 l31 -32 32
27 c68 57 145 80 222 65 64 -12 100 -38 128 -96 24 -51 24 -45 32 -510 l2
-153 -122 0 -122 0 2 284 c2 267 1 285 -17 305 -43 47 -118 10 -132 -65 -4
-20 -5 -147 -2 -281 l5 -243 -121 0 -121 0 3 277 c4 272 3 279 -18 306 -40 51
-111 26 -131 -46 -10 -40 -5 -426 7 -505 l5 -33 -126 3 -126 3 -2 373 -2 372
103 0 103 0 14 -34 15 -35 50 34 c28 19 68 37 88 40 20 4 42 8 47 10 15 5 67
-6 96 -20z m979 3 c74 -14 110 -29 154 -68 74 -65 79 -87 87 -345 5 -169 11
-243 23 -280 9 -27 16 -51 16 -52 0 -2 -52 -3 -115 -3 -108 0 -115 1 -126 23
-6 12 -12 23 -13 24 -1 1 -23 -9 -50 -22 -194 -98 -394 43 -346 244 24 99 128
183 287 230 40 12 75 26 78 31 10 16 -24 77 -51 89 -53 24 -163 4 -227 -41
l-28 -20 3 99 3 98 65 6 c76 6 163 2 240 -13z m892 -9 c81 -41 99 -98 104
-319 2 -96 5 -230 7 -297 l3 -123 -129 0 c-118 0 -129 2 -123 17 10 26 20 442
12 496 -4 27 -16 57 -27 68 -25 25 -70 24 -103 -2 l-27 -22 3 -278 3 -279
-121 0 -121 0 0 375 0 375 98 0 99 0 14 -35 15 -35 46 34 c25 20 62 38 83 41
20 4 42 8 47 9 20 6 81 -7 117 -25z m-2932 -263 c0 -261 1 -274 21 -300 26
-33 68 -34 106 -2 l28 24 -2 244 c-1 134 -5 258 -8 276 l-6 32 131 0 132 0 -8
-42 c-9 -56 -9 -610 0 -666 l8 -43 -108 3 -108 3 -8 33 c-5 17 -11 32 -14 32
-4 0 -20 -12 -38 -27 -45 -38 -88 -53 -151 -53 -66 0 -110 17 -147 56 -52 56
-55 77 -63 402 l-7 302 121 0 121 0 0 -274z m3400 -70 c0 -189 3 -358 6 -375
l7 -31 -132 0 -131 0 7 28 c10 35 10 659 0 695 l-7 27 125 0 125 0 0 -344z"/>
<path d="M4489 4990 c-59 -62 -74 -124 -74 -310 0 -186 16 -251 77 -312 32
-32 45 -38 80 -38 35 0 47 6 79 39 61 65 74 119 73 316 0 152 -2 176 -22 227
-30 76 -78 118 -134 118 -35 0 -47 -6 -79 -40z"/>
<path d="M8265 4848 c-2 -7 -20 -67 -40 -133 -19 -66 -38 -128 -41 -137 -5
-16 4 -18 90 -18 60 0 96 4 96 10 0 6 -16 66 -36 133 -20 67 -39 130 -41 140
-6 20 -22 23 -28 5z"/>
<path d="M2872 4774 c-12 -8 -29 -29 -37 -45 -18 -35 -39 -135 -30 -148 3 -6
35 0 74 14 108 36 111 39 111 91 0 37 -6 51 -29 75 -33 33 -56 36 -89 13z"/>
<path d="M5854 4779 c-11 -6 -28 -24 -38 -40 -18 -31 -40 -144 -31 -159 7 -11
143 35 167 57 45 40 -3 155 -64 152 -7 0 -22 -5 -34 -10z"/>
<path d="M6380 4548 c-49 -25 -90 -77 -90 -115 0 -85 100 -132 163 -76 14 13
17 33 17 115 0 95 -1 98 -23 98 -12 0 -43 -10 -67 -22z"/>
<path d="M9247 4769 c-16 -12 -33 -41 -42 -71 -19 -64 -20 -132 -2 -126 6 3
43 16 81 29 85 29 104 53 87 109 -12 41 -52 80 -81 80 -10 0 -29 -9 -43 -21z"/>
<path d="M9795 4551 c-58 -26 -95 -73 -95 -121 0 -79 80 -123 148 -81 l32 21
0 100 c0 97 -1 100 -22 100 -13 0 -41 -9 -63 -19z"/>
<path d="M5277 2794 c-15 -14 -29 -40 -32 -58 -4 -17 -5 -189 -3 -383 3 -339
4 -353 24 -380 44 -59 137 -62 196 -6 38 35 73 111 87 188 16 88 14 367 -4
443 -14 59 -50 139 -77 172 -29 35 -63 50 -114 50 -42 0 -56 -5 -77 -26z"/>
<path d="M4045 2392 c-100 -43 -156 -91 -194 -167 -45 -91 -24 -207 46 -259
37 -27 111 -32 154 -11 72 37 69 27 69 252 0 228 4 218 -75 185z"/>
<path d="M8403 2381 c-132 -63 -199 -160 -191 -278 4 -70 23 -103 78 -140 43
-30 102 -29 160 1 l45 23 3 211 c3 244 9 232 -95 183z"/>
<path d="M2576 890 c-32 -39 -41 -96 -40 -245 2 -135 15 -188 56 -218 26 -19
28 -19 53 -3 47 31 59 76 59 226 1 158 -6 199 -40 240 -32 38 -55 38 -88 0z"/>
<path d="M7195 661 c-79 -35 -121 -117 -95 -182 25 -59 85 -76 134 -38 25 20
26 24 26 130 0 121 1 120 -65 90z"/>
<path d="M10155 1358 c-91 -20 -145 -84 -152 -180 -5 -76 20 -135 80 -182 35
-28 46 -31 111 -31 60 0 78 4 108 24 58 40 82 85 86 160 5 85 -24 144 -89 182
-53 32 -91 39 -144 27z m120 -93 c14 -13 25 -32 25 -42 0 -25 -28 -63 -45 -63
-27 0 -26 -20 3 -62 43 -64 45 -68 30 -68 -7 0 -30 27 -50 60 -32 52 -41 60
-68 60 l-30 0 0 -60 c0 -33 -4 -60 -9 -60 -6 0 -11 57 -13 130 l-3 130 68 0
c59 0 71 -3 92 -25z"/>
<path d="M10140 1220 l0 -50 46 0 c60 0 84 14 84 48 0 40 -17 52 -77 52 l-53
0 0 -50z"/>
</g>
</svg>
