<?xml version="1.0" encoding="UTF-8" standalone="no"?>
<!-- Created with Inkscape (http://www.inkscape.org/) -->

<svg
   xmlns:dc="http://purl.org/dc/elements/1.1/"
   xmlns:cc="http://creativecommons.org/ns#"
   xmlns:rdf="http://www.w3.org/1999/02/22-rdf-syntax-ns#"
   xmlns:svg="http://www.w3.org/2000/svg"
   xmlns="http://www.w3.org/2000/svg"
   xmlns:sodipodi="http://sodipodi.sourceforge.net/DTD/sodipodi-0.dtd"
   xmlns:inkscape="http://www.inkscape.org/namespaces/inkscape"
   id="svg3355"
   version="1.1"
   inkscape:version="0.91 r13725"
   xml:space="preserve"
   width="219.341"
   height="301.90363"
   viewBox="0 0 219.341 301.90363"
   sodipodi:docname="favicon-black.svg"><metadata
     id="metadata3361"><rdf:RDF><cc:Work
         rdf:about=""><dc:format>image/svg+xml</dc:format><dc:type
           rdf:resource="http://purl.org/dc/dcmitype/StillImage" /><dc:title></dc:title></cc:Work></rdf:RDF></metadata><defs
     id="defs3359"><clipPath
       clipPathUnits="userSpaceOnUse"
       id="clipPath3371"><path
         d="m 936,1925.33 1652.12,0 0,1313.95 -1652.12,0 0,-1313.95 z"
         id="path3373"
         inkscape:connector-curvature="0" /></clipPath><clipPath
       clipPathUnits="userSpaceOnUse"
       id="clipPath3391"><path
         d="m 968.398,824.051 1722.33,0 0,737.871 -1722.33,0 0,-737.871 z"
         id="path3393"
         inkscape:connector-curvature="0" /></clipPath></defs><sodipodi:namedview
     pagecolor="#ffffff"
     bordercolor="#666666"
     borderopacity="1"
     objecttolerance="10"
     gridtolerance="10"
     guidetolerance="10"
     inkscape:pageopacity="0"
     inkscape:pageshadow="2"
     inkscape:window-width="1887"
     inkscape:window-height="1051"
     id="namedview3357"
     showgrid="false"
     inkscape:zoom="5.1980206"
     inkscape:cx="109.17277"
     inkscape:cy="199.46322"
     inkscape:window-x="33"
     inkscape:window-y="0"
     inkscape:window-maximized="1"
     inkscape:current-layer="g3363"
     fit-margin-top="0"
     fit-margin-left="0"
     fit-margin-right="0"
     fit-margin-bottom="0"
     inkscape:snap-page="true"
     inkscape:snap-bbox="true"
     inkscape:snap-text-baseline="true"
     inkscape:snap-center="true"
     inkscape:snap-others="true"
     inkscape:snap-object-midpoints="true"
     inkscape:snap-midpoints="true"
     inkscape:snap-smooth-nodes="true"
     inkscape:object-nodes="true"
     inkscape:snap-intersection-paths="true"
     inkscape:object-paths="true"
     inkscape:snap-bbox-midpoints="true"
     inkscape:snap-bbox-edge-midpoints="true"
     inkscape:bbox-nodes="true"
     inkscape:bbox-paths="true" /><g
     id="g3363"
     inkscape:groupmode="layer"
     inkscape:label="ink_ext_XXXXXX"
     transform="matrix(1.25,0,0,-1.25,-117,404.91)"><rect
       style="fill:#000000;fill-opacity:1"
       id="rect4372"
       width="175.47281"
       height="241.5229"
       x="-269.07281"
       y="-323.92801"
       transform="scale(-1,-1)" /><g
       id="g3365"
       transform="scale(0.1,0.1)"><g
         id="g3367"><g
           id="g3369"
           clip-path="url(#clipPath3371)"><path
             d="m 1451.67,2651.2 c -2.95,40.78 27.71,76.26 68.5,79.23 40.83,2.97 76.32,-27.72 79.28,-68.54 2.97,-40.8 -27.72,-76.29 -68.53,-79.23 -40.79,-2.95 -76.27,27.7 -79.25,68.54"
             style="fill:#ffffff;fill-opacity:1;fill-rule:nonzero;stroke:none"
             id="path3375"
             inkscape:connector-curvature="0" /><path
             d="m 2321.15,2651.2 c 2.96,40.78 -27.74,76.26 -68.54,79.23 -40.84,2.97 -76.28,-27.72 -79.26,-68.54 -2.95,-40.8 27.74,-76.29 68.51,-79.23 40.82,-2.95 76.31,27.7 79.29,68.54"
             style="fill:#ffffff;fill-opacity:1;fill-rule:nonzero;stroke:none"
             id="path3377"
             inkscape:connector-curvature="0" /><path
             d="m 2565.22,2535.03 c -8.71,32.13 -53.07,37.01 -92.18,26.82 -30.87,-8.02 -138.27,-37.84 -233.62,-30.92 -68.5,4.96 -135.49,61.96 -177.15,100.99 41.39,47.7 94.78,98.91 107.04,113.26 17.71,20.63 20.64,53.05 5.92,67.79 -14.73,14.75 -41.26,5.83 -67.8,-11.83 -26.5,-17.66 -126.73,-118.58 -222.33,-118.58 -95.56,0 -199.08,100.92 -225.61,118.58 -26.53,17.66 -64.86,14.74 -79.59,0 -14.75,-14.73 0.03,-35.33 17.72,-55.96 12.54,-14.65 67.94,-67.75 109.65,-116.34 -41.85,-38.84 -107.13,-93.08 -173.88,-97.91 -95.35,-6.92 -202.78,22.9 -233.63,30.92 -39.09,10.19 -83.44,5.31 -92.17,-26.82 -5.45,-20.07 11.58,-42.21 34.48,-57.14 22.78,-14.87 140.92,-37.81 174.14,-88.63 33.21,-50.79 38.28,-443.71 69.21,-456.86 22.56,-9.64 61.91,-9.64 83.28,1.22 29.98,15.21 80.56,443.9 106.08,498.96 14.13,30.41 49.67,75.85 81.41,114.16 27.31,-128.05 57.2,-605 85.98,-614.97 21.78,-7.52 65.13,-7.52 82.55,0 28.41,12.28 59.49,501.83 87.25,620.58 32.82,-39.38 71.24,-87.84 86.06,-119.77 25.53,-55.06 76.09,-483.75 106.06,-498.96 21.4,-10.86 60.72,-10.86 83.3,-1.22 30.92,13.15 35.98,406.07 69.22,456.86 33.23,50.82 151.33,73.76 174.12,88.63 22.89,14.93 39.92,37.07 34.49,57.14"
             style="fill:#ffffff;fill-opacity:1;fill-rule:nonzero;stroke:none"
             id="path3379"
             inkscape:connector-curvature="0" /><path
             d="m 1812.33,2808.42 c 0,40.93 33.16,74.07 74.09,74.07 40.86,0 74.07,-33.14 74.07,-74.07 0,-40.91 -33.21,-74.08 -74.07,-74.08 -40.93,0 -74.09,33.17 -74.09,74.08"
             style="fill:#ffffff;fill-opacity:1;fill-rule:nonzero;stroke:none"
             id="path3381"
             inkscape:connector-curvature="0" /><path
             d="m 2579.99,2803.21 c 36,-57.14 -39.39,-78.58 -96.97,-65.42 -48.25,10.99 -521.23,263.89 -592.17,270.42 -70.67,6.44 -496.15,-255.16 -543.06,-280.26 -68.9,-36.84 -129.74,-33.31 -193.35,-0.34 -21.01,10.96 -183.077,96.53 -218.44,120.39 35.363,33.01 527.3,328.37 584.55,357.07 65.87,33.06 105.12,50.38 177.56,23.33 50.22,-18.8 866.96,-401.57 881.88,-425.19"
             style="fill:#ffffff;fill-opacity:1;fill-rule:nonzero;stroke:none"
             id="path3383"
             inkscape:connector-curvature="0" /><path
             d="m 1122.61,2436.32 c 18.42,-2.72 105.4,-40.22 139.82,-57.94 82.81,-42.67 87.12,-85.06 96.56,-154.07 10.07,-73.49 18.76,-210.49 20.2,-262.4 -34.64,14.87 -170.3,128.39 -202.68,156.39 -25.1,21.76 -53.17,37.25 -53.1,70.97 0.03,12.86 -5.9,215.41 -0.8,247.05"
             style="fill:#ffffff;fill-opacity:1;fill-rule:nonzero;stroke:none"
             id="path3385"
             inkscape:connector-curvature="0" /></g></g><g
         id="g3387"><g
           id="g3389"
           clip-path="url(#clipPath3391)"><path
             d="m 2633.96,1059.56 12.78,0 c 8.5,0 11.23,3.01 11.23,9.14 0,5.39 -4.02,8.36 -9.53,8.36 l -14.48,0 0,-17.5 m 0,-30.12 -7.77,0 0,54.13 20.63,0 c 12.66,0 18.9,-5.12 18.9,-15.38 0,-9.75 -6.38,-13.86 -14.11,-14.89 l 15.61,-23.86 -8.63,0 -14.64,23.6 -9.99,0 0,-23.6 m 10.11,-12.62 c 21.54,0 38.16,16.98 38.16,39.48 0,22.15 -16.62,39.28 -38.16,39.28 -21.87,0 -38.36,-17.13 -38.36,-39.28 0,-22.5 16.49,-39.48 38.36,-39.48 m 0,85.75 c 25.42,0 46.66,-19.99 46.66,-46.27 0,-26.5 -21.24,-46.52 -46.66,-46.52 -25.45,0 -46.88,20.02 -46.88,46.52 0,26.28 21.43,46.27 46.88,46.27"
             style="fill:#ffffff;fill-opacity:1;fill-rule:nonzero;stroke:none"
             id="path3395"
             inkscape:connector-curvature="0" /><path
             d="m 1075.97,1557.98 c -2.21,-27.21 -2.76,-58.86 -2.76,-92.76 l 0,-63.88 c 12.23,-0.57 24.42,-1.12 42.21,-1.12 17.79,0 30,0.55 42.21,1.12 l 0,63.88 c 0,33.9 -0.55,65.55 -2.76,92.76 l 104.98,0 c -5.52,-57.21 -5.52,-103.88 -5.52,-198.31 0,-94.44 0,-141.12 5.52,-198.34 l -104.98,0 c 2.21,27.21 2.76,58.9 2.76,92.77 l 0,81.12 c -12.21,0.56 -24.42,1.12 -42.21,1.12 -17.79,0 -29.98,-0.56 -42.21,-1.12 l 0,-81.12 c 0,-33.87 0.55,-65.56 2.76,-92.77 l -105.001,0 c 5.554,57.22 5.554,103.9 5.554,198.34 0,94.43 0,141.1 -5.554,198.31 l 105.001,0"
             style="fill:#ffffff;fill-opacity:1;fill-rule:nonzero;stroke:none"
             id="path3397"
             inkscape:connector-curvature="0" /><path
             d="m 1428.75,1305.79 c -34.97,-8.92 -56.67,-30.57 -56.67,-58.34 0,-19.45 12.23,-34.44 30.04,-34.44 11.62,0 23.29,7.22 26.63,12.21 l 0,80.57 m -120.55,137.75 c 7.76,1.12 37.78,4.44 58.33,4.44 115.01,0 150.03,-44.98 150.03,-119.42 l 0,-69.46 c 0,-26.65 0,-56.66 14.42,-97.77 l -88.34,0 c -6.65,8.89 -8.86,15 -9.47,17.21 -14.99,-11.1 -35.5,-21.64 -62.18,-21.64 -53.89,0 -88.92,37.21 -88.92,83.88 0,51.11 40.55,85.58 93.36,102.77 l 46.1,15.02 c -0.55,19.42 -13.33,36.09 -39.44,36.09 -17.81,0 -45.57,-8.32 -73.89,-28.86 l 0,77.74"
             style="fill:#ffffff;fill-opacity:1;fill-rule:nonzero;stroke:none"
             id="path3399"
             inkscape:connector-curvature="0" /><path
             d="m 1654.57,1239.11 c 0,-16.11 6.11,-28.88 23.9,-28.88 22.77,0 38.89,23.3 38.89,89.43 0,47.23 -12.25,87.81 -40.02,87.81 -14.99,0 -22.77,-9.48 -22.77,-22.82 l 0,-125.54 m 0,318.87 0,-125.52 c 13.87,8.33 33.91,15.52 53.89,15.52 52.78,0 102.23,-38.87 102.23,-139.97 0,-78.35 -42.78,-153.32 -121.65,-153.32 -21.14,0 -45.59,7.18 -71.68,27.75 l -31.11,-26.66 -26.69,16.13 c 5.02,35.51 5.02,73.29 5.02,113.33 l 0,159.42 c 0,20.56 0,43.35 -5.57,113.32 l 95.56,0"
             style="fill:#ffffff;fill-opacity:1;fill-rule:nonzero;stroke:none"
             id="path3401"
             inkscape:connector-curvature="0" /><path
             d="m 1935.96,1441.31 c -1.1,-28.84 -1.1,-71.08 -1.1,-131.07 0,-75.57 0,-113.37 5,-148.91 l -100.01,0 c 5,35.54 5,73.34 5,113.34 l 0,53.31 c 0,40.03 0,77.79 -5,113.33 l 96.11,0 m -46.12,120.61 c 27.78,0 50.02,-22.25 50.02,-50.02 0,-27.78 -22.24,-50 -50.02,-50 -27.77,0 -49.99,22.22 -49.99,50 0,27.77 22.22,50.02 49.99,50.02"
             style="fill:#ffffff;fill-opacity:1;fill-rule:nonzero;stroke:none"
             id="path3403"
             inkscape:connector-curvature="0" /><path
             d="m 2089.3,1526.33 c -1.11,-17.21 -1.7,-50.01 -1.7,-85.02 l 41.69,0 0,-53.31 -41.69,0 0,-140.01 c 0,-22.77 8.34,-35.55 30.59,-35.55 3.36,0 6.66,0 11.67,0.57 l 0,-50 c -18.32,-6.11 -37.22,-8.32 -56.1,-8.32 -24.99,0 -45.02,8.87 -60.02,26.63 -11.67,13.9 -16.11,37.23 -16.11,65.58 l 0,141.1 -32.23,0 0,53.31 32.23,0 c 0,35.01 -0.53,67.81 -1.68,85.02 l 93.35,0"
             style="fill:#ffffff;fill-opacity:1;fill-rule:nonzero;stroke:none"
             id="path3405"
             inkscape:connector-curvature="0" /><path
             d="m 2304.46,1305.79 c -35.03,-8.92 -56.68,-30.57 -56.68,-58.34 0,-19.45 12.25,-34.44 30,-34.44 11.67,0 23.35,7.22 26.68,12.21 l 0,80.57 m -120.58,137.75 c 7.79,1.12 37.8,4.44 58.34,4.44 114.99,0 150.01,-44.98 150.01,-119.42 l 0,-69.46 c 0,-26.65 0,-56.66 14.43,-97.77 l -88.3,0 c -6.68,8.89 -8.9,15 -9.46,17.21 -15,-11.1 -35.58,-21.64 -62.24,-21.64 -53.89,0 -88.85,37.21 -88.85,83.88 0,51.11 40.56,85.58 93.29,102.77 l 46.14,15.02 c -0.59,19.42 -13.34,36.09 -39.45,36.09 -17.78,0 -45.55,-8.32 -73.91,-28.86 l 0,77.74"
             style="fill:#ffffff;fill-opacity:1;fill-rule:nonzero;stroke:none"
             id="path3407"
             inkscape:connector-curvature="0" /><path
             d="m 2542.62,1526.33 c -1.1,-17.21 -1.64,-50.01 -1.64,-85.02 l 41.64,0 0,-53.31 -41.64,0 0,-140.01 c 0,-22.77 8.3,-35.55 30.54,-35.55 3.34,0 6.67,0 11.65,0.57 l 0,-50 c -18.31,-6.11 -37.22,-8.32 -56.09,-8.32 -25.01,0 -45,8.87 -60,26.63 -11.66,13.9 -16.13,37.23 -16.13,65.58 l 0,141.1 -32.23,0 0,53.31 32.23,0 c 0,35.01 -0.56,67.81 -1.67,85.02 l 93.34,0"
             style="fill:#ffffff;fill-opacity:1;fill-rule:nonzero;stroke:none"
             id="path3409"
             inkscape:connector-curvature="0" /><path
             d="m 1061.41,1064.81 c -1.21,0.92 -5.14,3.02 -11.74,3.02 -12.62,0 -18.67,-9.62 -18.67,-19.88 0,-6 1.82,-12.02 3.01,-15.04 l 22.57,0 0,-28.87 -22.84,0 0,-61.399 c 0,-21.672 0,-42.129 2.68,-61.403 l -54.193,0 c 2.726,19.274 2.726,39.731 2.726,61.403 l 0,61.399 -16.555,0 0,28.87 16.555,0 0,11.75 c 0,17.76 3.02,29.78 17.187,41.54 12.03,9.6 27.06,12.91 40.3,12.91 7.23,0 15.06,-1.18 18.97,-2.7 l 0,-31.6"
             style="fill:#ffffff;fill-opacity:1;fill-rule:nonzero;stroke:none"
             id="path3411"
             inkscape:connector-curvature="0" /><path
             d="m 1112.99,957.07 c 0,-36.398 7.8,-49.351 16.83,-49.351 9.07,0 16.86,12.953 16.86,49.351 0,36.399 -7.79,49.37 -16.86,49.37 -9.03,0 -16.83,-12.971 -16.83,-49.37 m 87.25,0 c 0,-51.148 -33.71,-79.441 -70.42,-79.441 -36.7,0 -70.4,28.293 -70.4,79.441 0,51.16 33.7,79.47 70.4,79.47 36.71,0 70.42,-28.31 70.42,-79.47"
             style="fill:#ffffff;fill-opacity:1;fill-rule:nonzero;stroke:none"
             id="path3413"
             inkscape:connector-curvature="0" /><path
             d="m 1263.77,1032.91 c 1.79,-5.41 3.89,-15.36 4.22,-20.13 10.5,14.11 23.16,23.76 38.19,23.76 3.33,0 5.13,-0.32 6.63,-0.91 l 0,-40.04 c -3.3,0.93 -7.51,1.199 -9.02,1.199 -22.89,0 -32.8,-21.059 -32.8,-54.148 0,-21.672 0,-42.129 2.72,-61.403 l -56.01,0 c 2.72,19.274 2.72,39.731 2.72,61.403 l 0,28.871 c 0,21.687 0,42.158 -5.09,61.398 l 48.44,0"
             style="fill:#ffffff;fill-opacity:1;fill-rule:nonzero;stroke:none"
             id="path3415"
             inkscape:connector-curvature="0" /><path
             d="m 1473.24,1096.11 c -1.23,-14.75 -1.51,-31.88 -1.51,-50.26 l 0,-34.61 c 6.6,-0.28 13.2,-0.59 22.85,-0.59 9.65,0 16.28,0.31 22.87,0.59 l 0,34.61 c 0,18.38 -0.27,35.51 -1.49,50.26 l 56.86,0 c -3.01,-30.99 -3.01,-56.26 -3.01,-107.419 0,-51.16 0,-76.461 3.01,-107.453 l -56.86,0 c 1.22,14.75 1.49,31.91 1.49,50.242 l 0,43.961 c -6.59,0.289 -13.22,0.598 -22.87,0.598 -9.65,0 -16.25,-0.309 -22.85,-0.598 l 0,-43.961 c 0,-18.332 0.28,-35.492 1.51,-50.242 l -56.9,0 c 3.01,30.992 3.01,56.293 3.01,107.453 0,51.159 0,76.429 -3.01,107.419 l 56.9,0"
             style="fill:#ffffff;fill-opacity:1;fill-rule:nonzero;stroke:none"
             id="path3417"
             inkscape:connector-curvature="0" /><path
             d="m 1682.62,881.238 c -2.1,4.524 -3.6,9.594 -4.45,13.551 -11.18,-10.848 -22.62,-17.16 -38.23,-17.16 -25.63,0 -42.44,18.68 -42.44,47.562 l 0,46.321 c 0,21.687 0,42.158 -2.76,61.398 l 51.5,0 0,-100.828 c 0,-12 4.79,-18.934 13.54,-18.934 7.56,0 15.34,5.422 15.34,15.942 l 0,42.422 c 0,21.687 0,42.158 -2.67,61.398 l 54.14,0 c -2.74,-19.24 -2.74,-39.711 -2.74,-61.398 l 0,-28.871 c 0,-21.672 0,-42.129 2.74,-61.403 l -43.97,0"
             style="fill:#ffffff;fill-opacity:1;fill-rule:nonzero;stroke:none"
             id="path3419"
             inkscape:connector-curvature="0" /><path
             d="m 1797.03,1032.91 c 2.1,-4.53 3.58,-9.63 4.53,-13.5 11.12,10.2 24.67,17.13 39.7,17.13 16.28,0 26.49,-9.34 33.7,-19.27 10.86,9.62 22.9,19.27 42.44,19.27 29.51,0 40.65,-20.78 40.65,-50.571 l 0,-43.328 c 0,-21.672 0,-42.129 2.7,-61.403 l -54.13,0 c 2.66,19.274 2.66,39.731 2.66,61.403 l 0,41.828 c 0,10.531 -3,18.341 -12.3,18.341 -10.25,0 -15.99,-7.81 -15.99,-18.341 l 0,-41.828 c 0,-21.672 0,-42.129 2.74,-61.403 l -54.19,0 c 2.71,19.274 2.71,39.731 2.71,61.403 l 0,42.429 c 0,9.93 -3.02,17.74 -12.33,17.74 -8.45,0 -15.98,-6.919 -15.98,-15.939 l 0,-44.23 c 0,-21.672 0,-42.129 2.72,-61.403 l -54.17,0 c 2.69,19.274 2.69,39.731 2.69,61.403 l 0,28.871 c 0,21.687 0,42.158 -2.69,61.398 l 44.54,0"
             style="fill:#ffffff;fill-opacity:1;fill-rule:nonzero;stroke:none"
             id="path3421"
             inkscape:connector-curvature="0" /><path
             d="m 2055.26,959.512 c -18.92,-4.832 -30.68,-16.602 -30.68,-31.621 0,-10.551 6.64,-18.661 16.29,-18.661 6.29,0 12.63,3.918 14.39,6.622 l 0,43.66 m -65.27,74.608 c 4.23,0.58 20.45,2.42 31.63,2.42 62.28,0 81.24,-24.4 81.24,-64.72 l 0,-37.609 c 0,-14.473 0,-30.723 7.8,-52.973 l -47.83,0 c -3.6,4.801 -4.85,8.121 -5.11,9.344 -8.15,-6.043 -19.29,-11.75 -33.71,-11.75 -29.19,0 -48.17,20.168 -48.17,45.438 0,27.691 21.97,46.351 50.55,55.679 l 24.99,8.141 c -0.29,10.519 -7.25,19.54 -21.34,19.54 -9.64,0 -24.73,-4.5 -40.05,-15.65 l 0,42.14"
             style="fill:#ffffff;fill-opacity:1;fill-rule:nonzero;stroke:none"
             id="path3423"
             inkscape:connector-curvature="0" /><path
             d="m 2168.39,1032.91 c 2.11,-4.53 3.6,-9.63 4.51,-13.5 11.16,10.79 22.58,17.13 38.21,17.13 25.6,0 42.45,-18.66 42.45,-47.552 l 0,-46.347 c 0,-21.672 0,-42.129 2.71,-61.403 l -54.16,0 c 2.72,19.274 2.72,39.731 2.72,61.403 l 0,41.539 c 0,9.289 -3.93,16.85 -12.98,16.85 -7.49,0 -15.93,-5.44 -15.93,-14.46 l 0,-43.929 c 0,-21.672 0,-42.129 2.68,-61.403 l -54.13,0 c 2.67,19.274 2.67,39.731 2.67,61.403 l 0,28.871 c 0,21.687 0,42.158 -2.67,61.398 l 43.92,0"
             style="fill:#ffffff;fill-opacity:1;fill-rule:nonzero;stroke:none"
             id="path3425"
             inkscape:connector-curvature="0" /><path
             d="m 2326.12,1032.91 c -0.63,-15.64 -0.63,-38.531 -0.63,-71.012 0,-40.929 0,-61.386 2.72,-80.66 l -54.15,0 c 2.68,19.274 2.68,39.731 2.68,61.403 l 0,28.871 c 0,21.687 0,42.158 -2.68,61.398 l 52.06,0 m -24.99,65.33 c 15.03,0 27.08,-12.04 27.08,-27.1 0,-15.06 -12.05,-27.07 -27.08,-27.07 -15.05,0 -27.07,12.01 -27.07,27.07 0,15.06 12.02,27.1 27.07,27.1"
             style="fill:#ffffff;fill-opacity:1;fill-rule:nonzero;stroke:none"
             id="path3427"
             inkscape:connector-curvature="0" /><path
             d="m 2411.86,1078.95 c -0.64,-9.31 -0.9,-27.08 -0.9,-46.04 l 22.56,0 0,-28.87 -22.56,0 0,-75.829 c 0,-12.359 4.51,-19.289 16.51,-19.289 1.84,0 3.64,0 6.37,0.308 l 0,-27.089 c -9.94,-3.309 -20.2,-4.512 -30.43,-4.512 -13.54,0 -24.37,4.801 -32.47,14.43 -6.35,7.55 -8.74,20.171 -8.74,35.511 l 0,76.47 -17.48,0 0,28.87 17.48,0 c 0,18.96 -0.31,36.73 -0.89,46.04 l 50.55,0"
             style="fill:#ffffff;fill-opacity:1;fill-rule:nonzero;stroke:none"
             id="path3429"
             inkscape:connector-curvature="0" /><path
             d="m 2500.03,1032.91 c 3.91,-23.46 15.33,-66.199 21.37,-85.762 l 0.6,0 c 8.43,30.723 14.75,65.302 17.47,85.762 l 43.01,0 c -9.91,-41.219 -32.5,-124.91 -51.74,-164.308 -9.95,-20.172 -24.99,-44.551 -66.22,-44.551 -4.18,0 -10.5,0.32 -14.42,1.531 l 0,38.496 c 2.67,-1.519 9.32,-4.508 16.83,-4.508 15.67,0 26.17,12.93 26.17,24.078 0,5.711 -1.19,9.321 -13.22,41.243 -16.28,42.73 -28.62,87.889 -31.88,108.019 l 52.03,0"
             style="fill:#ffffff;fill-opacity:1;fill-rule:nonzero;stroke:none"
             id="path3431"
             inkscape:connector-curvature="0" /></g></g><path
         d="m 1007.25,1846.92 c 1.22,-21.43 1.47,-59.91 1.47,-81.83 0,-30.69 0,-65.28 -0.73,-92.07 l 28.49,0 c -1.7,42.87 -1.95,85.73 -1.95,128.6 l 0.49,0 c 0.97,-5.12 2.19,-9.74 6.58,-19 l 39.94,-83.05 c 8.04,-16.56 9.5,-19.49 12.42,-26.55 l 21.92,0 c -0.48,14.13 -0.97,41.16 -0.97,70.14 0,41.9 0.73,87.69 1.22,103.76 l -28.01,0 c 1.21,-36.53 1.7,-73.07 3.41,-109.11 l -0.49,-0.49 c -1.95,6.82 -3.41,10.96 -11.45,27.77 -13.15,27.27 -23.62,54.07 -39.21,81.83 l -33.13,0 z m 223.1,-108.14 c -0.97,26.79 -8.77,59.43 -41.89,59.43 -28.74,0 -48.71,-33.61 -48.71,-67.22 0,-36.78 23.14,-61.38 50.66,-61.38 24.11,0 37.26,16.56 41.4,21.43 l -10.23,11.45 c -5.84,-5.11 -14.85,-10.96 -24.59,-10.96 -19.49,0 -25.34,19.73 -26.31,26.79 l 59.67,20.46 z m -62.35,0.73 c 0.49,32.64 11.45,40.68 20.22,40.68 8.03,0 15.34,-9.26 15.34,-20.71 0,-6.82 -3.41,-9.74 -14.37,-13.15 l -21.19,-6.82 z m 132.74,55.29 c 0.24,-7.31 -15.34,-69.66 -17.05,-79.89 l -0.49,0 c -2.92,9.99 -12.17,51.64 -15.83,79.89 l -29.23,0 c 8.04,-39.21 10.23,-49.2 32.4,-121.78 l 19.73,0 c 1.95,5.6 15.1,48.71 18.99,71.85 l 0.49,0 c 2.68,-17.54 13.4,-56.02 19.49,-71.85 l 20.7,0 c 16.32,50.17 22.65,68.68 31.42,121.78 l -25.33,0 c 0,-22.41 -8.53,-57.24 -13.88,-79.16 l -0.49,0 c -7.31,26.06 -14.13,52.61 -18.51,79.16 l -22.41,0 z m 218.96,55.53 c -36.3,0 -63.33,-36.53 -63.33,-90.36 0,-53.83 27.03,-90.36 63.33,-90.36 36.29,0 63.32,36.53 63.32,90.36 0,53.83 -27.03,90.36 -63.32,90.36 z m 0,-21.43 c 19.24,0 31.17,-24.11 31.17,-68.93 0,-44.81 -11.93,-68.93 -31.17,-68.93 -19.25,0 -31.18,24.12 -31.18,68.93 0,44.82 11.93,68.93 31.18,68.93 z m 81.59,-34.1 c 6.33,-19.97 6.09,-41.89 6.09,-62.6 0,-42.38 -1.47,-49.44 -1.71,-59.18 l 29.96,0 c -0.49,10.96 -1.46,19.73 -1.46,46.28 0,37.5 7.3,55.04 28.25,55.04 2.92,0 6.09,-0.24 9.01,-0.73 l 0,24.6 c -1.7,0.49 -4.87,0.97 -6.82,0.97 -9.01,0 -17.53,-5.11 -31.9,-21.67 -0.25,2.68 -0.74,12.18 -2.93,17.29 l -28.49,0 z m 83.78,52.12 c 0.97,-14.12 1.46,-33.12 1.46,-84.51 0,-17.54 -0.49,-75.75 -1.46,-89.39 l 29.71,0 c -1.46,12.18 -1.46,75.5 -1.46,92.31 0,15.34 0,68.93 0.98,81.59 l -29.23,0 z m 140.29,-108.14 c -0.98,26.79 -8.77,59.43 -41.9,59.43 -28.74,0 -48.71,-33.61 -48.71,-67.22 0,-36.78 23.14,-61.38 50.66,-61.38 24.11,0 37.27,16.56 41.41,21.43 l -10.23,11.45 c -5.85,-5.11 -14.86,-10.96 -24.6,-10.96 -19.49,0 -25.33,19.73 -26.31,26.79 l 59.68,20.46 z m -62.36,0.73 c 0.49,32.64 11.45,40.68 20.22,40.68 8.04,0 15.34,-9.26 15.34,-20.71 0,-6.82 -3.41,-9.74 -14.37,-13.15 l -21.19,-6.82 z m 167.82,-66.49 c -3.17,12.18 -5.12,24.6 -5.12,37.26 l 0,43.11 c 0,35.81 -29.47,45.79 -60.65,45.79 -4.62,0 -11.44,-0.48 -16.56,-0.97 l 0,-28.74 c 5.12,2.68 15.35,8.77 26.79,8.77 13.89,0 21.19,-7.8 22.9,-20.7 -22.17,-6.34 -61.62,-17.3 -61.62,-52.13 0,-17.29 11.69,-35.8 34.1,-35.8 13.15,0 21.43,6.58 29.47,12.91 0.97,-3.17 2.68,-6.82 5.11,-9.5 l 25.58,0 z m -31.91,26.55 c -3.65,-4.87 -9.74,-8.04 -16.81,-8.04 -9.01,0 -17.29,6.09 -17.29,17.54 0,14.61 12.42,25.33 34.1,28.01 l 0,-37.51 z m 51.39,95.23 c 1.7,-7.31 3.16,-41.16 3.16,-63.08 0,-19.49 -0.48,-46.52 -0.73,-58.7 l 28.99,0 c -1.22,15.34 -1.47,30.93 -1.47,46.52 l 0,41.89 c 3.9,5.6 8.77,11.94 17.3,11.94 10.47,0 14.37,-7.31 14.37,-26.79 0,-7.8 0.48,-31.18 0.48,-36.54 0,-4.63 -0.73,-33.12 -1.21,-37.02 l 29.47,0 c -1.95,11.69 -1.95,64.3 -1.95,81.59 0,27.52 -9.74,43.6 -31.66,43.6 -10.72,0 -21.44,-6.33 -28.5,-15.83 l -2.68,12.42 -25.57,0 z m 108.87,-117.64 c 9.98,-3.65 19.48,-7.55 31.66,-7.55 29.47,0 48.47,20.21 48.47,41.65 0,37.99 -52.61,36.53 -52.61,54.07 0,5.6 5.36,11.93 16.07,11.93 9.02,0 17.78,-1.46 27.04,-5.84 l -1.71,25.82 c -2.43,0.73 -9.25,0.97 -11.93,0.97 -37.02,0 -55.29,-21.19 -55.29,-41.16 0,-34.34 52.61,-32.15 52.61,-53.59 0,-8.28 -6.09,-14.37 -16.56,-14.37 -15.83,0 -31.18,14.37 -37.75,21.19 l 0,-33.12 z m 182.91,169.76 5.11,-15.59 c -16.32,-56.5 -33.36,-105.7 -49.93,-158.31 l 29.23,0 c 2.92,16.07 5.36,27.28 9.5,40.92 9.5,0.24 16.32,0.48 23.63,0.48 7.06,0 14.61,-0.24 24.6,-0.48 3.16,-8.77 10.47,-35.56 11.69,-40.92 l 33.85,0 -54.56,173.9 -33.12,0 z m 18.75,-110.57 c -4.87,0 -9.5,0.24 -18.26,0.48 1.46,4.63 12.42,43.11 17.78,58.94 l 0.48,0 c 4.39,-12.66 11.45,-36.04 17.54,-58.94 -8.28,-0.24 -12.91,-0.48 -17.54,-0.48 z m 79.64,58.45 c 6.34,-19.97 6.09,-41.89 6.09,-62.6 0,-42.38 -1.46,-49.44 -1.7,-59.18 l 29.96,0 c -0.49,10.96 -1.46,19.73 -1.46,46.28 0,37.5 7.3,55.04 28.25,55.04 2.92,0 6.09,-0.24 9.01,-0.73 l 0,24.6 c -1.7,0.49 -4.87,0.97 -6.82,0.97 -9.01,0 -17.54,-5.11 -31.91,-21.67 -0.24,2.68 -0.73,12.18 -2.92,17.29 l -28.5,0 z m 165.63,-56.02 c -0.98,26.79 -8.77,59.43 -41.9,59.43 -28.74,0 -48.71,-33.61 -48.71,-67.22 0,-36.78 23.14,-61.38 50.66,-61.38 24.11,0 37.27,16.56 41.41,21.43 l -10.23,11.45 c -5.85,-5.11 -14.86,-10.96 -24.6,-10.96 -19.49,0 -25.33,19.73 -26.31,26.79 l 59.68,20.46 z m -62.36,0.73 c 0.49,32.64 11.45,40.68 20.22,40.68 8.04,0 15.34,-9.26 15.34,-20.71 0,-6.82 -3.41,-9.74 -14.37,-13.15 l -21.19,-6.82 z m 167.82,-66.49 c -3.17,12.18 -5.12,24.6 -5.12,37.26 l 0,43.11 c 0,35.81 -29.47,45.79 -60.65,45.79 -4.62,0 -11.44,-0.48 -16.56,-0.97 l 0,-28.74 c 5.12,2.68 15.35,8.77 26.79,8.77 13.89,0 21.19,-7.8 22.9,-20.7 -22.17,-6.34 -61.62,-17.3 -61.62,-52.13 0,-17.29 11.69,-35.8 34.1,-35.8 13.15,0 21.43,6.58 29.47,12.91 0.97,-3.17 2.68,-6.82 5.11,-9.5 l 25.58,0 z m -31.91,26.55 c -3.65,-4.87 -9.74,-8.04 -16.81,-8.04 -9.01,0 -17.29,6.09 -17.29,17.54 0,14.61 12.42,25.33 34.1,28.01 l 0,-37.51"
         style="fill:#ffffff;fill-opacity:1;fill-rule:nonzero;stroke:none"
         id="path3433"
         inkscape:connector-curvature="0" /></g></g></svg>