<?xml version="1.0" standalone="no"?>
<!DOCTYPE svg PUBLIC "-//W3C//DTD SVG 20010904//EN"
 "http://www.w3.org/TR/2001/REC-SVG-20010904/DTD/svg10.dtd">
<svg version="1.0" xmlns="http://www.w3.org/2000/svg"
 width="1208.000000pt" height="1208.000000pt" viewBox="0 0 1208.000000 1208.000000"
 preserveAspectRatio="xMidYMid meet">
<metadata>
Created by potrace 1.11, written by Peter Selinger 2001-2013
</metadata>
<g transform="translate(0.000000,1208.000000) scale(0.100000,-0.100000)"
fill="#000000" stroke="none">
<path d="M4930 12066 c-223 -66 -463 -199 -1820 -1014 -414 -249 -1043 -641
-1281 -798 -144 -95 -188 -129 -178 -138 51 -42 1000 -558 1164 -633 129 -59
238 -85 373 -91 132 -5 197 4 324 43 111 35 188 76 618 327 1266 740 1906
1073 2198 1143 92 23 139 15 307 -48 279 -105 730 -317 1920 -902 451 -222
745 -358 821 -381 81 -25 287 -26 364 -2 69 22 129 60 158 102 40 58 27 169
-27 229 -15 18 -79 58 -201 125 -245 134 -1448 720 -2320 1129 -135 63 -319
150 -410 193 -909 429 -1391 649 -1530 698 -69 24 -89 27 -255 29 -126 1 -194
-2 -225 -11z"/>
<path d="M6317 10289 c-106 -25 -202 -105 -251 -209 -27 -57 -30 -75 -30 -155
0 -80 3 -98 30 -155 124 -263 485 -294 647 -57 193 282 -63 654 -396 576z"/>
<path d="M7673 9976 c-74 -24 -171 -85 -301 -190 -311 -251 -504 -369 -717
-439 -351 -116 -689 2 -1225 424 -85 67 -178 133 -207 146 -105 48 -222 50
-312 3 -51 -25 -71 -55 -71 -103 0 -77 55 -151 284 -387 89 -91 210 -219 270
-284 l108 -120 -43 -38 c-187 -163 -349 -278 -488 -345 -190 -91 -284 -108
-550 -100 -238 7 -463 38 -736 104 -244 58 -317 72 -386 73 -246 1 -369 -154
-256 -323 70 -106 123 -135 472 -257 156 -54 365 -157 435 -213 109 -87 143
-171 185 -461 21 -146 90 -823 110 -1081 15 -201 69 -619 91 -705 29 -116 46
-140 110 -158 75 -21 257 -19 324 4 51 17 57 23 83 74 35 71 69 195 116 432
47 230 83 432 201 1128 95 554 145 796 184 883 41 94 198 319 347 499 l48 57
10 -48 c25 -118 81 -559 131 -1031 17 -162 42 -398 56 -525 14 -126 32 -292
39 -368 15 -144 18 -171 59 -487 44 -340 94 -569 130 -599 34 -28 277 -41 376
-20 35 8 56 18 67 35 55 84 117 510 233 1584 113 1053 168 1480 190 1480 23 0
329 -411 394 -531 48 -88 110 -347 170 -714 27 -164 117 -690 175 -1015 69
-391 135 -672 179 -760 25 -51 31 -56 82 -73 98 -33 329 -23 379 17 21 16 47
84 65 167 20 93 61 430 81 659 52 615 100 1058 130 1220 37 194 68 258 164
336 70 57 279 159 436 214 351 123 402 151 472 256 77 116 49 227 -73 289 -56
29 -65 30 -179 29 -104 0 -139 -5 -260 -36 -349 -90 -588 -127 -862 -135 -210
-6 -297 3 -411 41 -136 47 -334 159 -457 259 -124 102 -225 192 -225 201 0 11
33 47 330 356 245 256 263 284 268 400 3 84 -13 129 -60 163 -34 25 -110 31
-165 13z"/>
<path d="M4480 9520 c-112 -41 -202 -131 -234 -234 -26 -80 -19 -211 14 -281
33 -68 117 -150 187 -183 50 -23 71 -27 153 -27 87 1 101 3 162 33 75 36 141
103 179 179 21 42 24 62 24 158 0 96 -3 116 -24 158 -37 75 -104 142 -178 179
-86 42 -198 49 -283 18z"/>
<path d="M8091 9520 c-100 -37 -176 -105 -223 -199 -20 -40 -23 -61 -23 -156
0 -101 2 -114 28 -163 41 -79 98 -135 175 -173 62 -31 74 -34 162 -34 82 0
103 4 151 26 156 73 247 238 219 398 -15 88 -38 136 -94 198 -69 76 -154 116
-259 120 -64 3 -94 -1 -136 -17z"/>
<path d="M2576 8033 c-8 -51 -6 -685 3 -1008 8 -280 11 -298 68 -372 45 -59
682 -586 950 -786 125 -93 253 -177 270 -177 16 0 -41 833 -83 1195 -35 312
-59 420 -115 541 -62 132 -168 233 -348 331 -89 49 -358 172 -491 225 -62 24
-239 88 -246 88 -1 0 -4 -17 -8 -37z"/>
<path d="M4499 5126 c-20 -7 -52 -23 -72 -35 -190 -117 -237 -504 -90 -728
134 -203 390 -176 498 53 77 162 71 403 -12 556 -69 126 -212 194 -324 154z
m127 -125 c60 -37 94 -150 94 -315 0 -122 -12 -191 -44 -262 -58 -127 -185
-101 -231 48 -9 29 -19 103 -22 164 -14 278 77 442 203 365z"/>
<path d="M2004 5059 c3 -34 6 -232 6 -441 l0 -379 73 3 72 3 -3 300 -3 300
144 -300 144 -300 57 -3 56 -3 0 441 0 440 -72 0 -71 0 7 -257 7 -258 -86 185
c-47 102 -102 218 -122 258 l-38 72 -89 0 -89 0 7 -61z"/>
<path d="M5400 5118 c0 -2 -1 -199 -1 -438 l-1 -435 74 -3 74 -3 0 441 -1 440
-72 0 c-40 0 -73 -1 -73 -2z"/>
<path d="M8181 5113 c0 -5 6 -23 13 -42 11 -31 6 -51 -55 -250 -36 -119 -92
-294 -123 -389 -31 -95 -56 -177 -56 -182 0 -6 34 -10 75 -10 69 0 75 2 80 23
2 12 13 58 23 102 l17 80 119 0 119 0 30 -102 30 -103 84 0 c72 0 83 2 83 18
0 9 -29 107 -63 217 -35 110 -94 300 -132 422 l-70 223 -87 0 c-49 0 -88 -3
-87 -7z m144 -421 c14 -48 28 -95 31 -104 5 -16 -3 -18 -75 -18 -45 0 -81 3
-81 8 0 4 16 65 37 135 43 148 40 148 88 -21z"/>
<path d="M2874 4870 c-76 -18 -141 -83 -181 -181 -14 -33 -18 -71 -18 -154 0
-100 2 -115 27 -161 82 -157 251 -193 389 -83 46 36 48 47 14 79 l-25 24 -41
-24 c-81 -45 -154 -25 -193 54 -16 32 -16 40 -5 47 8 5 76 29 152 55 77 26
137 51 137 58 0 38 -25 138 -45 181 -26 53 -90 105 -131 105 -12 0 -28 2 -36
4 -7 2 -27 1 -44 -4z m59 -101 c42 -19 64 -103 33 -128 -14 -11 -121 -51 -139
-51 -15 0 -2 102 18 139 13 26 31 41 62 50 1 1 13 -4 26 -10z"/>
<path d="M5216 4849 c-25 -17 -52 -41 -58 -53 -11 -20 -13 -19 -23 19 l-12 40
-73 3 -72 3 7 -33 c4 -18 9 -158 12 -310 l5 -278 73 0 73 0 4 193 c3 172 5
197 25 239 24 53 62 78 118 78 l35 0 0 65 0 65 -33 0 c-21 0 -52 -12 -81 -31z"/>
<path d="M5853 4870 c-202 -45 -283 -406 -125 -564 55 -56 105 -78 173 -78 69
0 129 26 178 76 l32 33 -24 29 -25 29 -48 -25 c-56 -28 -109 -30 -146 -6 -29
19 -66 93 -52 105 5 5 34 16 64 26 30 10 93 31 139 48 l84 30 -6 64 c-16 165
-116 261 -244 233z m78 -119 c32 -33 40 -89 15 -111 -13 -10 -129 -50 -148
-50 -25 0 10 129 42 162 36 35 54 35 91 -1z"/>
<path d="M6217 4873 c-12 -11 -8 -143 3 -143 6 0 25 7 43 16 17 9 55 17 84 18
44 0 57 -4 77 -24 27 -29 43 -70 26 -70 -6 0 -46 -14 -89 -30 -156 -61 -232
-165 -201 -279 12 -47 62 -108 99 -123 48 -18 119 -11 168 17 l45 27 14 -21
c13 -18 25 -21 81 -21 l65 0 -7 28 c-3 15 -10 119 -14 232 -6 184 -9 210 -29
251 -28 58 -83 97 -159 115 -60 14 -195 19 -206 7z m243 -409 l0 -95 -36 -15
c-83 -35 -148 38 -108 122 13 27 31 43 68 60 28 13 57 24 64 24 9 0 12 -26 12
-96z"/>
<path d="M6970 4868 c-19 -5 -49 -20 -66 -33 -33 -25 -44 -24 -44 7 0 16 -9
18 -71 18 l-71 0 8 -67 c4 -38 7 -176 8 -308 l1 -240 74 0 73 0 -1 226 -2 227
27 21 c20 15 39 21 63 19 54 -4 60 -33 60 -285 l1 -213 74 0 73 0 -4 243 c-4
237 -11 289 -41 335 -28 44 -102 66 -162 50z"/>
<path d="M7486 4869 c-104 -15 -182 -78 -205 -165 -22 -84 17 -141 142 -206
76 -40 117 -76 117 -105 0 -24 -47 -63 -77 -63 -36 1 -105 32 -153 70 -20 16
-40 27 -44 23 -3 -3 -6 -40 -6 -80 l0 -74 37 -15 c54 -23 126 -32 182 -23 96
15 179 92 188 173 12 106 -24 159 -156 225 -42 22 -83 47 -91 55 -18 23 1 63
36 72 26 7 110 0 151 -12 23 -6 23 -5 17 57 -4 35 -7 65 -8 65 -7 8 -84 10
-130 3z"/>
<path d="M8930 4859 c-19 -12 -47 -32 -62 -46 l-27 -26 -8 34 -9 34 -73 3 -73
3 7 -33 c4 -18 9 -158 12 -310 l5 -278 74 0 74 0 0 178 c0 260 23 319 130 330
l50 5 0 63 0 64 -32 0 c-18 0 -49 -10 -68 -21z"/>
<path d="M9247 4865 c-63 -16 -126 -78 -164 -159 -24 -54 -28 -73 -28 -161 0
-116 12 -156 64 -223 92 -116 254 -127 364 -24 32 30 33 39 8 70 -23 26 -34
27 -65 7 -38 -25 -83 -34 -119 -24 -40 11 -61 31 -81 81 l-15 36 72 25 c40 14
107 38 151 53 l78 27 -6 58 c-18 178 -121 270 -259 234z m90 -107 c17 -13 35
-82 27 -102 -5 -14 -78 -47 -140 -62 l-27 -7 7 53 c15 112 74 165 133 118z"/>
<path d="M9620 4805 c0 -70 2 -76 18 -70 93 40 176 36 206 -10 26 -40 20 -52
-36 -71 -164 -53 -248 -136 -248 -245 0 -53 33 -124 71 -152 57 -41 150 -39
212 5 l30 21 18 -22 c16 -19 26 -22 81 -19 71 3 66 -8 48 108 -5 36 -10 130
-10 210 0 119 -4 152 -19 185 -40 87 -119 126 -268 133 l-103 5 0 -78z m250
-333 c0 -94 -8 -111 -56 -126 -26 -8 -73 9 -90 32 -21 27 -17 86 8 117 22 28
89 64 121 65 15 0 17 -11 17 -88z"/>
<path d="M3160 4848 c1 -42 52 -239 141 -540 l20 -68 49 0 c27 0 52 5 55 10
12 19 73 237 80 285 4 25 9 44 11 42 2 -2 15 -46 28 -98 14 -52 35 -125 48
-164 l23 -70 55 0 55 0 23 70 c62 190 132 473 132 537 0 10 -130 11 -130 1 -4
-83 -60 -367 -71 -356 -10 11 -43 139 -64 243 -25 129 -18 120 -84 120 -58 0
-59 0 -65 -32 -21 -115 -72 -338 -77 -338 -6 0 -53 210 -64 285 -14 91 -7 85
-90 85 -53 0 -75 -4 -75 -12z"/>
<path d="M6315 3671 c-46 -21 -111 -88 -131 -137 -22 -51 -18 -152 7 -199 55
-105 133 -150 251 -143 63 3 80 8 121 36 133 93 153 270 44 391 -60 66 -205
92 -292 52z"/>
<path d="M1826 3672 c-3 -5 -1 -72 5 -148 13 -178 13 -1518 0 -1689 -6 -71
-11 -136 -11 -143 0 -10 57 -12 268 -10 l267 3 -2 35 c0 19 -4 213 -9 431 l-7
397 104 4 c57 2 151 2 208 0 l104 -5 -5 -433 -4 -434 264 0 264 0 -9 193 c-10
249 -10 1365 0 1615 l9 192 -264 -2 -263 -3 4 -392 3 -393 -207 0 -208 0 8
358 c4 196 8 373 9 392 l1 35 -262 3 c-144 1 -264 -2 -267 -6z"/>
<path d="M4767 3673 c-3 -5 0 -64 6 -133 12 -145 16 -1452 4 -1666 l-7 -142
61 -36 c33 -20 65 -36 71 -36 6 0 37 21 67 48 96 82 86 78 129 49 188 -124
378 -141 570 -50 38 17 84 54 138 107 66 66 89 98 128 176 76 155 90 223 90
440 1 163 -2 195 -22 270 -81 298 -286 453 -554 419 -39 -5 -95 -20 -126 -34
-30 -14 -58 -25 -63 -25 -5 0 -10 138 -11 308 l-3 307 -237 3 c-130 1 -239 -1
-241 -5z m652 -877 c39 -21 78 -82 102 -162 29 -95 38 -365 15 -472 -33 -156
-84 -222 -173 -222 -53 0 -91 31 -103 85 -13 56 -13 671 1 717 16 61 93 87
158 54z"/>
<path d="M6950 3305 l0 -214 -77 -3 -78 -3 -3 -132 -3 -133 81 0 80 0 0 -332
c0 -568 19 -661 155 -765 103 -80 288 -96 487 -43 l38 11 0 129 0 130 -52 0
c-68 0 -118 25 -140 70 -16 31 -18 73 -18 418 l0 382 105 0 105 0 0 135 0 135
-105 0 -105 0 0 215 0 215 -235 0 -235 0 0 -215z"/>
<path d="M9221 3308 l4 -213 -82 -3 -83 -3 0 -134 0 -134 83 -3 82 -3 5 -445
c5 -436 6 -446 28 -499 31 -74 54 -103 113 -146 69 -52 151 -75 259 -75 76 0
188 16 253 36 15 5 17 20 17 135 l0 129 -57 0 c-41 0 -68 6 -91 20 -60 37 -62
49 -62 470 l0 380 100 0 100 0 0 135 0 135 -101 0 -100 0 2 213 2 212 -238 3
-237 2 3 -212z"/>
<path d="M3680 3119 c-58 -3 -120 -7 -137 -8 l-33 -1 0 -200 c0 -110 3 -200 7
-200 3 0 27 13 52 29 115 74 272 118 360 102 72 -14 131 -71 134 -131 l2 -33
-165 -57 c-187 -65 -276 -112 -360 -188 -107 -96 -160 -211 -160 -347 0 -129
49 -239 141 -319 144 -124 360 -140 548 -40 36 18 65 33 66 31 1 -1 12 -19 24
-39 l23 -38 224 0 c132 0 224 4 224 9 0 5 -4 21 -10 35 -5 14 -19 72 -31 128
-18 89 -22 153 -29 463 -8 386 -13 423 -64 523 -110 215 -385 310 -816 281z
m428 -921 l-3 -201 -39 -20 c-86 -45 -178 -17 -210 63 -41 102 -1 217 101 291
39 28 123 67 146 69 4 0 6 -91 5 -202z"/>
<path d="M8041 3119 c-67 -4 -129 -10 -137 -13 -11 -4 -14 -43 -14 -201 0
-107 3 -195 8 -195 4 0 21 9 37 21 17 11 62 35 101 53 215 100 392 69 411 -73
l5 -36 -134 -43 c-327 -104 -492 -235 -543 -431 -100 -387 298 -672 669 -478
34 18 63 33 66 34 3 2 16 -15 30 -37 l25 -40 222 0 c243 0 235 -2 212 57 -6
15 -20 71 -31 123 -16 78 -21 158 -28 460 -5 209 -13 384 -19 409 -77 296
-362 423 -880 390z m449 -918 l0 -199 -24 -15 c-13 -9 -44 -21 -69 -28 -39 -9
-51 -8 -89 9 -112 49 -116 223 -7 331 29 29 159 101 181 101 4 0 8 -89 8 -199z"/>
<path d="M6177 2978 c11 -149 10 -1042 0 -1185 l-9 -113 257 0 257 0 -6 33
c-14 76 -28 681 -23 1015 l6 362 -245 0 -245 0 8 -112z"/>
<path d="M10117 1384 c-54 -17 -113 -70 -140 -126 -23 -48 -22 -141 2 -193 40
-87 119 -138 216 -139 70 0 121 21 173 72 46 47 62 89 62 164 -1 112 -58 192
-162 223 -62 18 -88 18 -151 -1z m159 -53 c139 -63 138 -274 -1 -341 -85 -41
-180 -14 -235 69 -19 29 -24 49 -25 102 0 55 4 72 28 108 50 75 147 101 233
62z"/>
<path d="M10108 1304 c-5 -4 -8 -70 -8 -146 l0 -138 25 0 c24 0 25 3 25 60 0
53 2 60 20 60 12 0 33 -21 60 -60 27 -39 48 -60 60 -60 27 0 25 11 -11 70 -17
28 -30 52 -28 53 2 1 13 7 24 13 44 24 45 101 1 129 -26 17 -156 32 -168 19z
m145 -65 c20 -32 1 -49 -53 -49 l-50 0 0 36 0 35 46 -3 c30 -2 51 -9 57 -19z"/>
<path d="M2065 1362 c-66 -22 -149 -101 -164 -157 -6 -22 -11 -66 -11 -97 l0
-58 -40 0 -40 0 0 -75 0 -75 41 0 41 0 -4 -310 -3 -310 138 0 138 0 -6 48 c-4
26 -7 164 -8 307 l-2 260 58 3 57 3 0 74 0 75 -60 0 -59 0 -7 35 c-8 45 1 80
27 106 18 18 30 20 70 17 l49 -5 0 82 c0 77 -1 83 -22 89 -42 11 -143 5 -193
-12z"/>
<path d="M8420 1363 c-113 -58 -104 -213 15 -259 45 -17 48 -17 93 2 58 24 92
71 92 128 0 105 -110 176 -200 129z"/>
<path d="M4055 825 l0 -545 143 0 142 0 0 235 0 235 105 0 105 0 0 -235 0
-235 143 0 142 0 0 545 0 545 -142 0 -143 0 0 -215 0 -215 -105 0 -105 0 0
215 0 215 -142 0 -143 0 0 -545z"/>
<path d="M8780 1166 l0 -115 -42 -3 -43 -3 -3 -72 -3 -73 46 0 45 0 0 -215 c0
-250 8 -302 57 -355 57 -64 144 -83 258 -57 l50 12 3 73 3 72 -34 0 c-20 0
-42 8 -55 20 -21 20 -22 27 -22 235 l0 215 55 0 55 0 0 75 0 75 -55 0 -55 0 0
115 0 115 -130 0 -130 0 0 -114z"/>
<path d="M2530 1056 c-68 -19 -103 -41 -155 -92 -112 -112 -144 -308 -78 -474
32 -80 63 -121 128 -165 174 -120 408 -58 505 136 58 114 59 294 3 407 -39 76
-112 146 -182 173 -69 26 -161 33 -221 15z m135 -187 c37 -71 38 -336 1 -407
-30 -58 -73 -49 -101 20 -14 34 -18 73 -18 183 0 121 3 147 21 188 18 41 25
47 51 47 24 0 34 -7 46 -31z"/>
<path d="M3420 1046 c-25 -13 -56 -36 -69 -50 -14 -14 -28 -26 -32 -26 -4 0
-10 18 -14 40 l-7 40 -130 0 -130 0 6 -22 c17 -59 28 -300 22 -493 -3 -116 -7
-219 -8 -230 -3 -19 4 -20 138 -23 l140 -3 0 213 c-1 210 -1 214 26 270 32 69
62 90 128 90 l51 0 -3 107 -3 106 -35 2 c-21 2 -53 -7 -80 -21z"/>
<path d="M6098 1055 c-20 -7 -54 -25 -75 -40 l-38 -25 -13 30 -12 30 -113 0
-112 0 0 -385 0 -385 135 0 135 0 -3 274 c-3 196 -1 279 7 295 14 26 56 44 82
36 36 -12 42 -66 37 -324 -3 -135 -7 -253 -9 -261 -3 -13 16 -15 135 -15 l138
0 -1 281 -2 282 27 21 c33 26 45 26 75 2 l24 -19 -2 -244 c-1 -134 -5 -262 -8
-286 l-6 -42 138 0 138 0 -3 282 c-4 322 -10 377 -50 428 -77 97 -203 104
-329 20 l-46 -31 -31 30 c-60 58 -140 75 -218 46z"/>
<path d="M6958 1063 l-38 -4 0 -110 c0 -60 2 -109 5 -109 2 0 33 14 67 32 42
21 82 33 120 36 52 4 59 2 82 -23 42 -46 35 -57 -56 -89 -111 -39 -151 -60
-200 -104 -110 -99 -118 -269 -16 -358 78 -68 202 -83 296 -35 42 21 42 21 54
1 12 -18 23 -20 135 -20 71 0 123 4 123 10 0 5 -7 35 -16 67 -11 40 -18 129
-23 283 -7 202 -9 229 -29 266 -54 104 -166 155 -352 159 -63 2 -132 1 -152
-2z m270 -615 c-31 -20 -60 -20 -86 -1 -69 52 -34 168 63 207 l30 13 3 -105
c2 -78 -1 -108 -10 -114z"/>
<path d="M7955 1058 c-16 -6 -49 -23 -72 -39 l-42 -27 -10 29 -10 29 -113 0
-113 0 0 -385 0 -385 135 0 136 0 -4 274 -4 274 25 26 c32 31 60 33 88 5 21
-21 21 -27 18 -300 l-4 -279 136 0 136 0 -4 233 c-5 366 -7 387 -31 434 -12
23 -32 52 -45 64 -54 52 -150 72 -222 47z"/>
<path d="M4943 1022 c3 -16 9 -154 12 -308 7 -317 12 -343 76 -398 80 -68 190
-71 285 -6 l45 30 10 -30 11 -30 111 0 112 0 0 385 0 385 -135 0 -135 0 3
-278 4 -279 -27 -21 c-36 -28 -50 -28 -80 3 l-25 24 0 276 0 275 -136 0 -136
0 5 -28z"/>
<path d="M8345 665 l0 -385 139 0 139 0 -6 67 c-4 38 -7 211 -7 386 l0 317
-132 0 -133 0 0 -385z"/>
<path d="M9210 1046 c0 -50 88 -349 164 -555 31 -86 56 -171 56 -192 0 -75
-88 -136 -161 -110 -17 6 -36 11 -40 11 -5 0 -9 -45 -9 -100 l0 -100 83 0
c212 0 307 105 428 472 52 156 142 472 154 541 l7 38 -113 -3 -114 -3 -15
-100 c-9 -55 -27 -147 -40 -204 l-24 -104 -13 39 c-11 32 -69 264 -88 352 -5
21 -9 22 -140 22 -74 0 -135 -2 -135 -4z"/>
</g>
</svg>
